<svg width="229" height="66" viewBox="0 0 229 66" fill="none" xmlns="http://www.w3.org/2000/svg">
<path d="M72.2216 34.4379V25.5747C72.2216 24.2229 72.573 23.1242 73.2711 22.2744C73.9735 21.4271 74.8956 21 76.0394 21C77.2309 21 78.1613 21.4271 78.843 22.2744C79.5225 23.1242 79.8612 24.2229 79.8612 25.5747V34.4382H87.5405C88.9036 34.4382 89.9804 34.7969 90.7895 35.5134C91.5987 36.2346 92 37.1806 92 38.3582C92 39.532 91.5987 40.4783 90.7895 41.1992C89.9804 41.916 88.9036 42.2766 87.5405 42.2766H79.8612V51.4279C79.8612 52.7771 79.5225 53.878 78.843 54.7275C78.1613 55.5751 77.2309 56 76.0394 56C74.8956 56 73.9735 55.5751 73.2711 54.7275C72.573 53.878 72.2216 52.7771 72.2216 51.4279V42.2766H65.0794C65.2407 41.0662 65.3201 39.7962 65.3201 38.4677C65.3201 37.114 65.2177 35.7601 65 34.4382H72.2216V34.4379Z" fill="#9EBB31"/>
<path d="M0 52.2144V25.7875C0 24.3036 0.341622 23.1344 1.03311 22.2814C1.72246 21.4287 2.75588 21 4.13671 21C5.51358 21 6.54669 21.4287 7.23818 22.2814C7.92784 23.1344 8.26946 24.3036 8.26946 25.7875V27.0344H8.39707C9.81912 25.1112 11.414 23.6254 13.1902 22.5743C14.9664 21.5255 17.0634 21 19.488 21C20.9513 21 22.3612 21.2089 23.7173 21.6246C25.0755 22.0402 26.3043 22.7379 27.4134 23.7244C28.5207 24.7087 29.3997 26.0182 30.046 27.657C30.6056 29.0783 30.9225 30.7517 30.9988 32.6813C31.0812 32.4014 31.1676 32.1257 31.258 31.8542C31.9907 29.6898 33.0629 27.7992 34.4852 26.1817C37.5351 22.7293 41.7338 21 47.0807 21C52.4276 21 56.626 22.7293 59.6761 26.1817C61.0982 27.7992 62.1725 29.6898 62.901 31.8542C63.6337 34.0186 64 36.39 64 38.9677C64 41.4596 63.6852 43.7875 63.0594 45.9519C62.4317 48.1163 61.4603 50.0158 60.1472 51.6566C59.7461 52.1524 59.3119 52.615 58.8341 53.0479C55.3624 45.1526 50.0051 35.9868 41.9396 28.4167C41.9396 28.4167 52.4767 39.4821 57.2784 54.2603C56.5499 54.7452 55.7492 55.1778 54.8827 55.5589C54.0081 55.94 53.0696 56.248 52.0695 56.4764C49.966 49.5782 46.3376 39.876 41.4105 34.8536C41.4105 34.8536 47.9059 42.6563 50.104 56.8233C49.1448 56.9415 48.1364 56.9997 47.0807 56.9997C44.0739 56.9997 41.4825 56.5304 39.3113 55.5912C37.1379 54.6503 35.3825 53.3517 34.0487 51.6889C32.7112 50.0286 31.7294 48.116 31.0995 45.9516L31.0174 45.65V52.2144C31.0174 53.6555 30.6694 54.8165 29.9822 55.6908C29.2925 56.5649 28.1113 57 26.4423 57C24.7711 57 23.5918 56.5652 22.9024 55.6908C22.2128 54.8165 21.8672 53.6555 21.8672 52.2144V35.4935C21.8672 33.4799 21.3897 31.8756 20.4305 30.6715C19.4673 29.47 18.0266 28.8691 16.1024 28.8691C14.3487 28.8691 12.7496 29.5582 11.3111 30.9367C9.86858 32.3126 9.14595 34.1371 9.14595 36.411V52.2144C9.14595 53.6555 8.80433 54.8165 8.11498 55.6908C7.42349 56.5649 6.24415 57 4.57298 57C2.90181 57 1.72246 56.5652 1.03311 55.6908C0.341622 54.8165 0 53.6555 0 52.2144Z" fill="#9EBB31"/>
<path d="M171.067 29.0338C174.179 55.5615 164.595 63.5128 172.039 65.8165C172.039 65.8165 176.068 67.1342 178.047 62.7076C179.634 59.1574 181.239 51.0126 178.581 36.9548C178.581 36.9548 174.288 10.7094 157 0C157 0 168.807 9.76439 171.067 29.0338Z" fill="#9EBB31"/>
<path d="M100.075 52.6848C100.527 54.0459 101.092 54.9371 101.77 55.3642C102.45 55.7872 103.859 56 106.001 56C108.141 56 109.552 55.7872 110.23 55.3642C110.908 54.9371 111.475 54.0459 111.926 52.6848L120.445 28.204C120.609 27.7361 120.742 27.2892 120.842 26.864C120.95 26.4391 121 26.0998 121 25.8441C121 24.2725 120.569 23.072 119.702 22.2432C118.84 21.4122 117.811 21 116.619 21C115.835 21 115.166 21.1481 114.613 21.4443C114.058 21.7428 113.604 22.1037 113.255 22.5289C112.904 22.9541 112.648 23.3685 112.482 23.7721C112.317 24.1757 112.193 24.5474 112.111 24.8885L106.059 45.9274H105.938L99.8883 24.8885C99.8053 24.5474 99.6825 24.1651 99.5203 23.7399C99.3519 23.3147 99.1086 22.9003 98.778 22.4967C98.4495 22.0928 97.9943 21.7428 97.4203 21.4443C96.8423 21.1481 96.1644 21 95.3829 21C94.1893 21 93.1623 21.4122 92.2972 22.2432C91.4302 23.072 91 24.2725 91 25.8441C91 26.0998 91.0518 26.4391 91.1539 26.864C91.26 27.2892 91.3889 27.7361 91.5552 28.204L100.075 52.6848Z" fill="#9EBB31"/>
<path d="M128.925 34.8981C129.413 32.5603 130.351 30.7439 131.734 29.4466C133.12 28.1519 134.892 27.5035 137.051 27.5035C139.008 27.5035 140.688 28.1949 142.095 29.5734C143.499 30.956 144.322 32.7316 144.567 34.8981H128.925ZM149.089 40.2533C150.598 40.2533 151.628 39.9762 152.177 39.4246C152.726 38.8707 153 37.8098 153 36.238C153 34.2818 152.646 32.4014 151.93 30.5955C151.218 28.7896 150.159 27.1512 148.756 25.6848C147.346 24.2207 145.635 23.0741 143.62 22.2431C141.604 21.4144 139.354 21 136.867 21C131.654 21 127.537 22.6466 124.524 25.9403C121.509 29.2361 120 33.6231 120 39.1064C120 41.2299 120.327 43.2912 120.98 45.2901C121.63 47.2871 122.649 49.0924 124.032 50.7075C125.42 52.3242 127.214 53.6077 129.412 54.5632C131.612 55.521 134.2 56 137.174 56C138.598 56 140.116 55.8283 141.727 55.4891C143.336 55.1499 144.86 54.6279 146.311 53.9282C147.757 53.2262 148.926 52.3544 149.824 51.3129C150.721 50.2737 151.168 49.0927 151.168 47.7747C151.168 46.8836 150.812 46.0548 150.096 45.2904C149.384 44.5241 148.519 44.1419 147.502 44.1419C146.809 44.1419 146.22 44.29 145.728 44.5885C145.24 44.8869 144.689 45.3312 144.081 45.9281C143.101 46.8192 142.134 47.5107 141.173 47.998C140.218 48.4872 138.886 48.7325 137.174 48.7325C134.607 48.7325 132.588 47.9464 131.125 46.3749C129.655 44.8012 128.924 42.7612 128.924 40.2533H149.089Z" fill="#9EBB31"/>
<path d="M184 38.4664C184 40.8883 184.307 43.1534 184.918 45.2577C185.527 47.3598 186.489 49.2192 187.789 50.8337C189.094 52.4484 190.804 53.7129 192.922 54.6276C195.04 55.5401 197.567 56 200.5 56C203.433 56 205.968 55.5293 208.107 54.5957C210.245 53.6613 211.958 52.3972 213.24 50.8018C214.524 49.2087 215.471 47.3598 216.08 45.258C216.693 43.1537 217 40.8886 217 38.4667C217 35.9589 216.64 33.6555 215.927 31.549C215.218 29.4469 214.168 27.6066 212.783 26.0374C209.809 22.6791 205.715 21 200.5 21C195.283 21 191.191 22.6791 188.219 26.0374C186.83 27.6066 185.782 29.4469 185.072 31.549C184.358 33.6552 184 35.9586 184 38.4664ZM192.922 38.4664C192.922 35.2779 193.566 32.7188 194.849 30.7862C196.133 28.8516 198.016 27.8834 200.5 27.8834C202.984 27.8834 204.868 28.8516 206.154 30.7862C207.436 32.7188 208.076 35.2779 208.076 38.4664C208.076 41.5259 207.447 44.0659 206.183 46.0842C204.919 48.1051 203.026 49.1141 200.5 49.1141C197.973 49.1141 196.078 48.1051 194.818 46.0842C193.554 44.0659 192.922 41.5262 192.922 38.4664Z" fill="#9EBB31"/>
<path d="M159.392 23.8154C159.392 46.3227 150.742 51.9353 156.646 54.6643C156.646 54.6643 159.831 56.1979 161.886 52.7093C163.538 49.9141 165.645 43.2781 164.812 31.2426C164.812 31.2426 164.628 15.2915 152 5C152 5.00032 159.392 14.1139 159.392 23.8154Z" fill="#9EBB31"/>
<path d="M226.04 47.4529C225.826 47.3279 225.212 47.0433 224.438 47.0433C222.882 47.0433 222.122 48.1111 222.122 49.5338C222.122 50.923 222.933 52.0431 224.452 52.0431C225.115 52.0431 225.745 51.8483 226.123 51.5815L226.322 52.2576C225.745 52.6669 224.984 52.8091 224.29 52.8091C222.372 52.8091 221.264 51.3842 221.264 49.588C221.264 47.5597 222.75 46.2776 224.422 46.2776C225.28 46.2776 226.027 46.5444 226.239 46.7586L226.04 47.4529ZM224.009 44.731C221.642 44.731 219.825 46.8297 219.825 49.5341C219.825 52.1859 221.642 54.2512 224.023 54.269C226.355 54.2866 228.174 52.1859 228.174 49.4815C228.174 46.8297 226.355 44.731 224.023 44.731H224.009ZM224.043 44C226.818 44 229 46.4551 229 49.4815C229 52.5426 226.819 55 224.024 55C221.214 55 219 52.5426 219 49.4815C219 46.4554 221.214 44 224.024 44H224.043Z" fill="#9EBB31"/>
</svg>
