<svg width="72" height="72" viewBox="0 0 72 72" fill="none" xmlns="http://www.w3.org/2000/svg">
<circle cx="36" cy="36" r="36" fill="#9EBB31"/>
<path d="M43.7093 37.5742C40.3087 37.5742 37.5693 40.3136 37.5693 43.7142C37.5693 47.1147 40.3402 49.8541 43.7093 49.8541C47.0784 49.8541 49.8492 47.1147 49.8492 43.7142C49.8492 40.3136 47.1099 37.5742 43.7093 37.5742ZM47.0784 43.0844L43.3944 46.7684C42.9536 47.2092 42.2609 47.2092 41.8201 46.7684L40.3717 45.32C39.9309 44.8792 39.9309 44.1865 40.3717 43.7456C40.8125 43.3048 41.5052 43.3048 41.946 43.7456L42.6072 44.4069L45.504 41.5101C45.9448 41.0693 46.6376 41.0693 47.0784 41.5101C47.5192 41.9509 47.5192 42.6436 47.0784 43.0844Z" fill="white"/>
<path d="M35.9948 43.7132C35.9948 39.4624 39.4583 35.9989 43.7091 35.9989H45V21.8613C45 21.1371 44.4333 20.5703 43.7091 20.5703H23.1481C22.4554 20.5703 21.8572 21.1371 21.8572 21.8613V50.1365C21.8572 50.8607 22.4239 51.4275 23.1481 51.4275H43.7091C39.4583 51.4275 35.9948 47.9639 35.9948 43.7132ZM30.3901 42.2333H27.6193C26.8951 42.2333 26.3283 41.6665 26.3283 40.9423C26.3283 40.2181 26.8951 39.6514 27.6193 39.6514H30.3901C31.1143 39.6514 31.6811 40.2181 31.6811 40.9423C31.6811 41.6665 31.1143 42.2333 30.3901 42.2333ZM33.1295 35.4321H27.6193C26.8951 35.4321 26.3283 34.8654 26.3283 34.1412C26.3283 33.417 26.8951 32.8502 27.6193 32.8502H33.098C33.8222 32.8502 34.389 33.417 34.389 34.1412C34.389 34.8654 33.8222 35.4321 33.1295 35.4321ZM27.6193 28.631C26.8951 28.631 26.3283 28.0642 26.3283 27.34C26.3283 26.6158 26.8951 26.049 27.6193 26.049H35.6799C36.4041 26.049 36.9709 26.6158 36.9709 27.34C36.9709 28.0642 36.4041 28.631 35.6799 28.631H27.6193Z" fill="white"/>
</svg>
