<svg width="157" height="81" viewBox="0 0 157 81" fill="none" xmlns="http://www.w3.org/2000/svg">
<path d="M83.4387 43.0995C174.407 8.23769 200.89 9.45826 209.327 -1.53496C209.327 -1.53496 214.126 -7.56163 199.124 -4.51316C187.101 -2.07635 159.355 5.78724 111.077 25.3834C111.077 25.3834 46.6879 50.3007 10.6389 80.7148C10.6402 80.7144 44.2284 58.1261 83.4387 43.0995Z" fill="white"/>
<path d="M78.2461 29.6049C167.119 -10.276 193.658 -10.5472 201.446 -21.9851C201.446 -21.9851 205.89 -28.2653 191.075 -24.3818C179.202 -21.2758 151.933 -11.8739 104.831 10.3831C104.831 10.3831 41.939 38.8524 7.69165 71.2109C7.69165 71.2109 39.9389 46.795 78.2461 29.6049Z" fill="white"/>
</svg>
