<svg width="171" height="107" viewBox="0 0 171 107" fill="none" xmlns="http://www.w3.org/2000/svg">
<path d="M87.5614 37.7208C-3.40654 72.5826 -29.8898 71.3621 -38.3267 82.3553C-38.3267 82.3553 -43.1261 88.3819 -28.1238 85.3335C-16.1014 82.8967 11.6451 75.0331 59.923 55.4369C59.923 55.4369 124.312 30.5196 160.361 0.105469C160.36 0.105962 126.772 22.6942 87.5614 37.7208Z" fill="white"/>
<path d="M92.754 51.2154C3.88123 91.0963 -22.6575 91.3675 -30.446 102.805C-30.446 102.805 -34.8898 109.086 -20.0749 105.202C-8.20233 102.096 19.0671 92.6942 66.1691 70.4373C66.1691 70.4373 129.061 41.9679 163.308 9.60938C163.308 9.60938 131.061 34.0253 92.754 51.2154Z" fill="white"/>
</svg>
