<svg width="56" height="56" viewBox="0 0 56 56" fill="none" xmlns="http://www.w3.org/2000/svg">
<circle cx="28" cy="28" r="28" fill="#43B5B5"/>
<path fill-rule="evenodd" clip-rule="evenodd" d="M24.6646 24.557L25.7663 21.9382C25.7663 21.9382 27.7493 16.9524 30.5979 14C30.5979 14 28.1459 17.8212 30.3492 21.913L31.4571 24.557C31.7585 25.2727 31.8458 26.0605 31.7083 26.8248C31.5709 27.5891 31.2147 28.2971 30.6828 28.8629C30.3464 29.2215 29.94 29.5073 29.4887 29.7026C29.0375 29.898 28.551 29.9988 28.0593 29.9988C27.5676 29.9988 27.0811 29.898 26.6299 29.7026C26.1787 29.5073 25.7723 29.2215 25.4358 28.8629C24.9045 28.2967 24.5489 27.5886 24.412 26.8243C24.2751 26.06 24.3629 25.2724 24.6646 24.557ZM42.4831 24.7009V35.9441C42.4889 36.2082 42.4427 36.4709 42.347 36.7172C42.2512 36.9635 42.108 37.1885 41.9253 37.3793C41.7426 37.5702 41.5241 37.7232 41.2822 37.8296C41.0404 37.936 40.78 37.9937 40.5158 37.9995H15.9646C15.4317 37.9871 14.9255 37.7636 14.5572 37.3783C14.1889 36.9929 13.9887 36.477 14.0005 35.9441V24.7009C13.9887 24.1679 14.1889 23.6521 14.5572 23.2667C14.9255 22.8813 15.4317 22.6579 15.9646 22.6455H23.053C23.1768 22.6496 23.2977 22.6842 23.4051 22.7461C23.5124 22.808 23.6029 22.8954 23.6685 23.0005C23.7342 23.1056 23.7729 23.2252 23.7814 23.3489C23.7899 23.4725 23.7678 23.5963 23.7171 23.7094C22.946 25.5067 23.1317 27.647 24.3466 29.1453C24.7826 29.6992 25.3385 30.1469 25.9726 30.4548C26.6067 30.7627 27.3024 30.9226 28.0073 30.9226C28.7122 30.9226 29.4078 30.7627 30.0419 30.4548C30.676 30.1469 31.232 29.6992 31.6679 29.1453C32.8672 27.647 33.0529 25.5067 32.2975 23.7094C32.2468 23.5963 32.2247 23.4725 32.2332 23.3489C32.2417 23.2252 32.2804 23.1056 32.346 23.0005C32.4116 22.8954 32.5021 22.808 32.6095 22.7461C32.7168 22.6842 32.8377 22.6496 32.9616 22.6455H40.5158C40.78 22.6512 41.0404 22.7089 41.2822 22.8153C41.5241 22.9217 41.7426 23.0748 41.9253 23.2656C42.108 23.4565 42.2512 23.6815 42.347 23.9278C42.4427 24.174 42.4889 24.4367 42.4831 24.7009Z" fill="white"/>
</svg>
