<svg width="104" height="104" viewBox="0 0 104 104" fill="none" xmlns="http://www.w3.org/2000/svg">
<circle opacity="0.2" cx="52" cy="52" r="52" fill="white"/>
<circle cx="52" cy="52" r="40" fill="white"/>
<path fill-rule="evenodd" clip-rule="evenodd" d="M54.5391 28H48.7432C45.5818 28 43 30.5818 43 33.7432V42.437C43 45.1769 44.8968 47.4426 47.4786 48.0748C47.4259 48.2329 47.4259 48.3383 47.4259 48.4964V50.077C47.4259 50.8674 47.9528 51.6051 48.6905 51.8158C48.954 52.8696 49.8497 53.7126 50.9562 53.9761V74.6832C50.9562 75.1047 51.325 75.4736 51.7465 75.4736C52.168 75.4736 52.5369 75.1047 52.5369 74.6832V53.9761C53.5907 53.66 54.381 52.8696 54.6445 51.8685C55.3821 51.6051 55.909 50.9201 55.909 50.1297V48.549C55.909 48.391 55.909 48.2856 55.8563 48.1275C58.4381 47.5479 60.335 45.2296 60.335 42.4897V33.7432C60.335 30.5818 57.7532 28 54.5391 28ZM54.3283 48.4964V50.077C54.3283 50.2351 54.2229 50.3405 54.0649 50.3405H49.2701C49.112 50.3405 49.0066 50.2351 49.0066 50.077V48.4964C49.0066 48.3383 49.112 48.2329 49.2701 48.2329H54.0649C54.1702 48.2329 54.3283 48.3383 54.3283 48.4964ZM51.6411 52.5008C51.1669 52.5008 50.6927 52.29 50.4293 51.9739H52.853C52.5896 52.29 52.168 52.5008 51.6411 52.5008ZM58.7543 42.437C58.7543 44.7554 56.8574 46.5995 54.5918 46.5995H54.0649H49.2701H48.7432C46.4248 46.5995 44.5807 44.7027 44.5807 42.437V33.7432C44.5807 31.4248 46.4775 29.5807 48.7432 29.5807H54.5391C56.8574 29.5807 58.7016 31.4775 58.7016 33.7432V42.437H58.7543ZM47.4786 69.8334C47.1625 69.5172 46.6883 69.5172 46.3722 69.8334C46.056 70.1495 46.056 70.6237 46.3722 70.9398L48.9013 73.469C49.0593 73.627 49.2701 73.6797 49.4809 73.6797C49.6916 73.6797 49.9024 73.627 50.0605 73.469C50.3766 73.1528 50.3766 72.6786 50.0605 72.3625L47.4786 69.8334ZM54.5918 73.5223C54.4337 73.6804 54.223 73.7331 54.0122 73.7331C53.8015 73.7331 53.5907 73.6277 53.4853 73.5223C53.1692 73.2062 53.1692 72.732 53.4853 72.4159L56.0144 69.8867C56.3306 69.5706 56.8048 69.5706 57.1209 69.8867C57.4371 70.2029 57.4371 70.6771 57.1209 70.9932L54.5918 73.5223ZM49.2703 74.4195H45.6874C45.2659 74.4195 44.8971 74.7883 44.8971 75.2099C44.8971 75.6314 45.2659 76.0002 45.6874 76.0002H49.2703C49.6918 76.0002 50.0607 75.6314 50.0607 75.2099C50.0607 74.7883 49.6918 74.4195 49.2703 74.4195ZM54.1703 74.4195H57.7532C58.2274 74.4195 58.5436 74.7883 58.5436 75.2099C58.5436 75.6314 58.1747 76.0002 57.7532 76.0002H54.1703C53.7488 76.0002 53.3799 75.6314 53.3799 75.2099C53.3799 74.7883 53.7488 74.4195 54.1703 74.4195Z" fill="#9EBB31"/>
</svg>
