<svg width="134" height="24" viewBox="0 0 134 24" fill="none" xmlns="http://www.w3.org/2000/svg">
<path d="M83.3274 5.68858C23.908 5.69146 9.09074 -0.961691 1.88626 3.57995C1.88626 3.57995 -2.16251 6.03071 7.04745 7.6109C14.4267 8.88081 31.9459 10.5009 63.7195 9.85878C63.7195 9.85878 105.831 9.71547 133 0C132.999 4.07948e-08 108.939 5.68734 83.3274 5.68858Z" fill="#9EBB31"/>
<path d="M83.3398 14.7522C24.0183 18.1623 8.84396 12.3697 1.91177 17.317C1.91177 17.317 -1.9898 19.9959 7.29561 21.0454C14.7355 21.89 32.3188 22.5028 64.0033 20.0399C64.0033 20.0399 106.037 17.482 132.604 6.22461C132.604 6.22461 108.909 13.2823 83.3398 14.7522Z" fill="#9EBB31"/>
</svg>
