<svg width="20" height="21" viewBox="0 0 20 21" fill="none" xmlns="http://www.w3.org/2000/svg">
<path d="M10 0.5C8.02219 0.5 6.08879 1.08649 4.4443 2.1853C2.79981 3.28412 1.51809 4.8459 0.761209 6.67317C0.00433284 8.50043 -0.193701 10.5111 0.192152 12.4509C0.578004 14.3907 1.53041 16.1725 2.92894 17.5711C4.32746 18.9696 6.10929 19.922 8.0491 20.3079C9.98891 20.6937 11.9996 20.4957 13.8268 19.7388C15.6541 18.9819 17.2159 17.7002 18.3147 16.0557C19.4135 14.4112 20 12.4778 20 10.5C20 9.18678 19.7413 7.88642 19.2388 6.67317C18.7363 5.45991 17.9997 4.35752 17.0711 3.42893C16.1425 2.50035 15.0401 1.76375 13.8268 1.2612C12.6136 0.758658 11.3132 0.5 10 0.5ZM14.3 8.11L9.73 14.11C9.63685 14.231 9.51721 14.3291 9.38027 14.3967C9.24333 14.4643 9.09272 14.4996 8.94 14.5C8.78811 14.5008 8.63803 14.467 8.50115 14.4012C8.36426 14.3353 8.24418 14.2392 8.15 14.12L5.71 11.01C5.62924 10.9063 5.5697 10.7876 5.53479 10.6609C5.49988 10.5341 5.49027 10.4017 5.50652 10.2713C5.52277 10.1408 5.56456 10.0148 5.6295 9.90049C5.69444 9.78617 5.78126 9.68576 5.885 9.605C6.09453 9.44189 6.36026 9.3687 6.62375 9.40152C6.75421 9.41777 6.8802 9.45955 6.99452 9.52449C7.10884 9.58943 7.20924 9.67626 7.29 9.78L8.92 11.86L12.7 6.86C12.7801 6.75494 12.8801 6.66669 12.9943 6.60029C13.1086 6.53388 13.2347 6.49062 13.3657 6.47298C13.4966 6.45534 13.6297 6.46365 13.7574 6.49746C13.8851 6.53126 14.0049 6.58989 14.11 6.67C14.2151 6.75011 14.3033 6.85012 14.3697 6.96433C14.4361 7.07855 14.4794 7.20472 14.497 7.33565C14.5147 7.46658 14.5063 7.5997 14.4725 7.72742C14.4387 7.85514 14.3801 7.97494 14.3 8.08V8.11Z" fill="#9EBB31"/>
</svg>
