<svg width="56" height="56" viewBox="0 0 56 56" fill="none" xmlns="http://www.w3.org/2000/svg">
<mask id="mask0_119_2225" style="mask-type:alpha" maskUnits="userSpaceOnUse" x="0" y="0" width="56" height="56">
<circle cx="28" cy="28" r="28" fill="#43B5B5"/>
</mask>
<g mask="url(#mask0_119_2225)">
<circle cx="28" cy="28" r="28" fill="#9EBB31"/>
<path fill-rule="evenodd" clip-rule="evenodd" d="M54.1937 130.029C52.1396 118.134 48.9557 99.6967 41.1868 70.7086C34.5946 46.1107 22.9694 24.4497 22.837 24.203L22.8359 24.2009C39.2523 47.93 50.2898 88.5691 50.2898 88.5691C59.1337 119.094 62.1031 136.435 62.7864 143.892C63.6437 153.197 60.2286 149.921 60.2286 149.921C57.1345 147.058 56.2066 141.685 54.1937 130.029ZM68.4206 126.267C65.6425 114.52 61.3364 96.3125 51.8083 67.8541C43.7233 43.7057 30.7945 22.7967 30.6472 22.5585L30.6459 22.5564C48.4836 45.2366 61.9871 85.1241 61.9871 85.1241C72.6822 115.05 76.7072 132.178 77.8454 139.579C79.2705 148.814 75.6613 145.752 75.6613 145.752C72.3979 143.085 71.1429 137.778 68.4206 126.267Z" fill="white"/>
</g>
</svg>
