<svg width="88" height="11" viewBox="0 0 88 11" fill="none" xmlns="http://www.w3.org/2000/svg">
<path d="M54.8849 3.79239C15.272 3.79431 5.39382 -0.641127 0.590843 2.38663C0.590843 2.38663 -2.10834 4.02047 4.03163 5.07394C8.95111 5.92054 20.6306 7.00057 41.813 6.57252C41.813 6.57252 69.887 6.47698 88 0C87.9994 2.71965e-08 71.9595 3.79156 54.8849 3.79239Z" fill="#9EBB31"/>
<path d="M54.8849 7.12539C15.272 7.12732 5.39382 2.69188 0.590843 5.71964C0.590843 5.71964 -2.10834 7.35348 4.03163 8.40694C8.95111 9.25355 20.6306 10.3336 41.813 9.90553C41.813 9.90553 69.887 9.80999 88 3.33301C87.9994 3.33301 71.9595 7.12456 54.8849 7.12539Z" fill="#9EBB31"/>
</svg>
