<svg width="24" height="34" viewBox="0 0 24 34" fill="none" xmlns="http://www.w3.org/2000/svg">
<path d="M6.21992 1.89508C8.00251 0.856648 10.0319 0.317609 12.0949 0.334619C14.1578 0.351629 16.178 0.924061 17.9433 1.99174C21.5166 4.21175 23.6866 8.17508 23.6666 12.4334C23.5833 16.6667 21.2549 20.6484 18.3449 23.7251C16.6699 25.5055 14.7914 27.083 12.7483 28.4251C12.538 28.5473 12.3069 28.6292 12.0666 28.6667C11.8367 28.6564 11.6131 28.5882 11.4166 28.4684C8.29354 26.4489 5.56128 23.8816 3.35159 20.8901C1.49184 18.3731 0.439387 15.3511 0.333252 12.2234L0.341585 11.7684C0.491585 7.67508 2.70825 3.93508 6.21992 1.89508ZM13.5116 8.72508C12.7874 8.41787 11.9874 8.33624 11.2161 8.49086C10.4448 8.64548 9.73807 9.02915 9.18825 9.59174C8.63143 10.1614 8.25298 10.8811 8.09932 11.6627C7.94567 12.4443 8.02349 13.2537 8.32325 13.9917C8.61582 14.7253 9.12084 15.3547 9.77355 15.7992C10.4263 16.2437 11.1969 16.4832 11.9866 16.4867C12.5087 16.4895 13.026 16.3873 13.5078 16.1864C13.9896 15.9854 14.4262 15.6897 14.7916 15.3167C15.5349 14.5617 15.9516 13.5334 15.9483 12.4634C15.9544 11.6698 15.7265 10.892 15.2932 10.2271C14.8598 9.56226 14.2401 9.03982 13.5116 8.72508Z" fill="white"/>
<path opacity="0.4" d="M11.9998 33.6668C16.6022 33.6668 20.3332 32.9206 20.3332 32.0002C20.3332 31.0797 16.6022 30.3335 11.9998 30.3335C7.39746 30.3335 3.6665 31.0797 3.6665 32.0002C3.6665 32.9206 7.39746 33.6668 11.9998 33.6668Z" fill="white"/>
</svg>
