<svg width="170" height="48" viewBox="0 0 170 48" fill="none" xmlns="http://www.w3.org/2000/svg">
<path d="M53.3493 24.9824V18.3983C53.3493 17.3942 53.6096 16.578 54.1267 15.9467C54.6471 15.3173 55.3301 15 56.1773 15C57.0599 15 57.7491 15.3173 58.2541 15.9467C58.7574 16.578 59.0083 17.3942 59.0083 18.3983V24.9827H64.6967C65.7064 24.9827 66.504 25.2492 67.1034 25.7814C67.7027 26.3171 68 27.0198 68 27.8947C68 28.7667 67.7027 29.4696 67.1034 30.0051C66.504 30.5376 65.7064 30.8055 64.6967 30.8055H59.0083V37.6036C59.0083 38.6058 58.7574 39.4237 58.2541 40.0547C57.7491 40.6844 57.0599 41 56.1773 41C55.3301 41 54.6471 40.6844 54.1267 40.0547C53.6096 39.4237 53.3493 38.6058 53.3493 37.6036V30.8055H48.0588C48.1783 29.9063 48.2371 28.9629 48.2371 27.976C48.2371 26.9704 48.1613 25.9646 48 24.9827H53.3493V24.9824Z" fill="#ACC76E"/>
<path d="M0 37.5437V18.4577C0 17.3859 0.250879 16.5415 0.75869 15.9254C1.26493 15.3096 2.02385 15 3.0379 15C4.04904 15 4.80773 15.3096 5.31554 15.9254C5.822 16.5415 6.07288 17.3859 6.07288 18.4577V19.3582H6.1666C7.21092 17.9692 8.38214 16.8961 9.68653 16.137C10.9909 15.3795 12.5309 15 14.3115 15C15.3861 15 16.4215 15.1509 17.4174 15.4511C18.4148 15.7512 19.3172 16.2551 20.1317 16.9676C20.9449 17.6785 21.5904 18.6242 22.065 19.8079C22.476 20.8344 22.7087 22.0429 22.7647 23.4365C22.8253 23.2344 22.8887 23.0352 22.9551 22.8391C23.4932 21.276 24.2806 19.9105 25.3251 18.7424C27.5648 16.2489 30.6483 15 34.5749 15C38.5015 15 41.5847 16.2489 43.8247 18.7424C44.869 19.9105 45.6579 21.276 46.1929 22.8391C46.731 24.4023 47 26.115 47 27.9767C47 29.7764 46.7689 31.4577 46.3092 33.0208C45.8483 34.584 45.1349 35.9559 44.1706 37.1409C43.876 37.499 43.5572 37.8331 43.2063 38.1457C40.6567 32.4435 36.7225 25.8238 30.7994 20.3565C30.7994 20.3565 38.5376 28.3482 42.0638 39.0213C41.5289 39.3715 40.9408 39.6839 40.3045 39.9592C39.6622 40.2345 38.973 40.4569 38.2385 40.6218C36.6938 35.6398 34.0292 28.6326 30.4108 25.0054C30.4108 25.0054 35.1809 30.6407 36.7951 40.8724C36.0907 40.9578 35.3502 40.9998 34.5749 40.9998C32.3667 40.9998 30.4637 40.6608 28.8692 39.9825C27.2732 39.303 25.984 38.3651 25.0045 37.1642C24.0223 35.9651 23.3012 34.5838 22.8387 33.0206L22.7784 32.8028V37.5437C22.7784 38.5845 22.5228 39.423 22.0182 40.0545C21.5117 40.6858 20.6443 41 19.4186 41C18.1913 41 17.3252 40.686 16.819 40.0545C16.3125 39.423 16.0587 38.5845 16.0587 37.5437V25.4676C16.0587 24.0133 15.7081 22.8546 15.0036 21.985C14.2963 21.1172 13.2383 20.6832 11.8252 20.6832C10.5374 20.6832 9.36301 21.1809 8.30658 22.1765C7.24724 23.1702 6.71656 24.4879 6.71656 26.1302V37.5437C6.71656 38.5845 6.46568 39.423 5.95944 40.0545C5.45163 40.6858 4.58555 41 3.35828 41C2.13101 41 1.26493 40.686 0.75869 40.0545C0.250879 39.423 0 38.5845 0 37.5437Z" fill="#ACC76E"/>
<path d="M127.397 21.1155C129.697 40.4084 122.614 46.1911 128.116 47.8665C128.116 47.8665 131.093 48.8249 132.557 45.6055C133.73 43.0236 134.916 37.1001 132.952 26.8762C132.952 26.8762 129.778 7.78868 117 0C117 0 125.727 7.10138 127.397 21.1155Z" fill="#ACC76E"/>
<path d="M73.6553 38.5373C73.9862 39.5484 74.4008 40.2104 74.8979 40.5277C75.3966 40.8419 76.4303 41 78.0008 41C79.5698 41 80.6049 40.8419 81.1018 40.5277C81.599 40.2104 82.0154 39.5484 82.346 38.5373L88.5929 20.3515C88.7132 20.0039 88.8109 19.672 88.884 19.3561C88.9634 19.0404 89 18.7884 89 18.5984C89 17.431 88.6843 16.5392 88.0485 15.9235C87.4159 15.3062 86.6612 15 85.7875 15C85.2125 15 84.7217 15.11 84.316 15.3301C83.9089 15.5518 83.5766 15.8199 83.3204 16.1358C83.0628 16.4516 82.8753 16.7595 82.7531 17.0593C82.6328 17.3591 82.5412 17.6352 82.4817 17.8886L78.0433 33.5175H77.9549L73.5181 17.8886C73.4572 17.6352 73.3672 17.3512 73.2482 17.0354C73.1247 16.7195 72.9463 16.4116 72.7038 16.1119C72.463 15.8118 72.1291 15.5518 71.7082 15.3301C71.2844 15.11 70.7873 15 70.2141 15C69.3388 15 68.5857 15.3062 67.9513 15.9235C67.3155 16.5392 67 17.431 67 18.5984C67 18.7884 67.038 19.0404 67.1129 19.3561C67.1907 19.672 67.2852 20.0039 67.4071 20.3515L73.6553 38.5373Z" fill="#ACC76E"/>
<path d="M95.4907 25.3243C95.8456 23.5876 96.5281 22.2383 97.534 21.2746C98.5415 20.3129 99.8302 19.8311 101.401 19.8311C102.824 19.8311 104.046 20.3448 105.069 21.3688C106.09 22.3959 106.689 23.7149 106.867 25.3243H95.4907ZM110.156 29.3025C111.253 29.3025 112.002 29.0966 112.401 28.6868C112.801 28.2754 113 27.4873 113 26.3197C113 24.8665 112.743 23.4696 112.221 22.1281C111.704 20.7865 110.934 19.5695 109.913 18.4802C108.888 17.3925 107.644 16.5407 106.178 15.9235C104.712 15.3078 103.075 15 101.267 15C97.4756 15 94.4815 16.2232 92.2901 18.6699C90.0971 21.1182 89 24.3772 89 28.4505C89 30.0279 89.2378 31.5592 89.7126 33.0441C90.1857 34.5276 90.9267 35.8686 91.9326 37.0684C92.9416 38.2694 94.2468 39.2229 95.8453 39.9327C97.4454 40.6442 99.3273 41 101.49 41C102.526 41 103.63 40.8725 104.801 40.6205C105.972 40.3685 107.08 39.9807 108.135 39.4609C109.187 38.9394 110.037 38.2919 110.69 37.5182C111.343 36.7462 111.668 35.8689 111.668 34.8898C111.668 34.2278 111.409 33.6122 110.888 33.0443C110.37 32.4751 109.741 32.1911 109.002 32.1911C108.497 32.1911 108.069 32.3012 107.711 32.5229C107.356 32.7445 106.955 33.0746 106.513 33.518C105.801 34.18 105.097 34.6937 104.399 35.0557C103.704 35.4191 102.736 35.6013 101.49 35.6013C99.6235 35.6013 98.1549 35.0173 97.0906 33.8499C96.0219 32.6809 95.4905 31.1655 95.4905 29.3025H110.156Z" fill="#ACC76E"/>
<path d="M136 27.975C136 29.7741 136.223 31.4568 136.668 33.02C137.111 34.5816 137.81 35.9628 138.756 37.1621C139.704 38.3617 140.948 39.301 142.489 39.9805C144.029 40.6584 145.867 41 148 41C150.133 41 151.977 40.6503 153.532 39.9568C155.087 39.2627 156.333 38.3236 157.265 37.1385C158.199 35.955 158.888 34.5816 159.331 33.0203C159.777 31.4571 160 29.7744 160 27.9753C160 26.1123 159.738 24.4012 159.22 22.8364C158.704 21.2748 157.94 19.9078 156.933 18.742C154.77 16.2473 151.793 15 148 15C144.206 15 141.23 16.2473 139.069 18.742C138.058 19.9078 137.296 21.2748 136.78 22.8364C136.26 24.401 136 26.1121 136 27.975ZM142.489 27.975C142.489 25.6065 142.957 23.7054 143.89 22.2697C144.824 20.8326 146.194 20.1134 148 20.1134C149.807 20.1134 151.177 20.8326 152.112 22.2697C153.045 23.7054 153.51 25.6065 153.51 27.975C153.51 30.2478 153.052 32.1347 152.133 33.634C151.214 35.1352 149.837 35.8848 148 35.8848C146.162 35.8848 144.784 35.1352 143.868 33.634C142.948 32.1347 142.489 30.248 142.489 27.975Z" fill="#ACC76E"/>
<path d="M118.686 17.5471C118.686 33.7524 112.032 37.7934 116.574 39.7583C116.574 39.7583 119.024 40.8625 120.605 38.3507C121.875 36.3382 123.496 31.5602 122.855 22.8947C122.855 22.8947 122.714 11.4099 113 4C113 4 118.686 10.562 118.686 17.5471Z" fill="#ACC76E"/>
<path d="M167.632 34.5112C167.461 34.4203 166.97 34.2133 166.35 34.2133C165.106 34.2133 164.497 34.9899 164.497 36.0246C164.497 37.0349 165.146 37.8495 166.362 37.8495C166.892 37.8495 167.396 37.7079 167.698 37.5138L167.858 38.0055C167.396 38.3032 166.787 38.4066 166.232 38.4066C164.698 38.4066 163.812 37.3703 163.812 36.064C163.812 34.5888 165 33.6564 166.337 33.6564C167.024 33.6564 167.622 33.8505 167.791 34.0063L167.632 34.5112ZM166.007 32.5316C164.114 32.5316 162.66 34.058 162.66 36.0248C162.66 37.9534 164.114 39.4554 166.019 39.4684C167.884 39.4811 169.339 37.9534 169.339 35.9865C169.339 34.058 167.884 32.5316 166.019 32.5316H166.007ZM166.035 32C168.255 32 170 33.7855 170 35.9865C170 38.2128 168.255 40 166.019 40C163.771 40 162 38.2128 162 35.9865C162 33.7858 163.771 32 166.019 32H166.035Z" fill="#ACC76E"/>
</svg>
