<svg width="124" height="59" viewBox="0 0 124 59" fill="none" xmlns="http://www.w3.org/2000/svg">
<g filter="url(#filter0_d_21_515)">
<path fill-rule="evenodd" clip-rule="evenodd" d="M26.8148 3C14.7668 3 5 12.7668 5 24.8148C5 36.8628 14.7668 46.6296 26.8148 46.6296H55.9328L59.004 51.6166C60.3782 53.8479 63.6218 53.8479 64.996 51.6166L68.0672 46.6296H97.1852C109.233 46.6296 119 36.8628 119 24.8148C119 12.7668 109.233 3 97.1852 3H26.8148Z" fill="#9EBB31"/>
<path d="M46.0115 24.5889V21.0249C46.0115 20.4813 46.158 20.0395 46.4491 19.6978C46.7421 19.3571 47.1266 19.1853 47.6035 19.1853C48.1004 19.1853 48.4884 19.3571 48.7727 19.6978C49.056 20.0395 49.1973 20.4813 49.1973 21.0249V24.589H52.3996C52.968 24.589 53.4171 24.7333 53.7545 25.0214C54.0919 25.3114 54.2593 25.6918 54.2593 26.1653C54.2593 26.6373 54.0919 27.0178 53.7545 27.3077C53.4171 27.596 52.968 27.741 52.3996 27.741H49.1973V31.4208C49.1973 31.9634 49.056 32.4061 48.7727 32.7477C48.4884 33.0885 48.1004 33.2594 47.6035 33.2594C47.1266 33.2594 46.7421 33.0885 46.4491 32.7477C46.158 32.4061 46.0115 31.9634 46.0115 31.4208V27.741H43.0331C43.1004 27.2542 43.1335 26.7436 43.1335 26.2093C43.1335 25.665 43.0908 25.1206 43 24.589H46.0115V24.5889Z" fill="white"/>
<path d="M16.2593 31.9986V21.1505C16.2593 20.5414 16.402 20.0614 16.6909 19.7113C16.979 19.3613 17.4107 19.1853 17.9877 19.1853C18.563 19.1853 18.9946 19.3613 19.2836 19.7113C19.5717 20.0614 19.7145 20.5414 19.7145 21.1505V21.6624H19.7678C20.3619 20.8729 21.0283 20.263 21.7704 19.8316C22.5126 19.401 23.3888 19.1853 24.4019 19.1853C25.0132 19.1853 25.6023 19.2711 26.1689 19.4417C26.7364 19.6123 27.2499 19.8987 27.7133 20.3037C28.1759 20.7077 28.5432 21.2452 28.8132 21.918C29.047 22.5014 29.1794 23.1883 29.2113 23.9804C29.2458 23.8655 29.2819 23.7523 29.3196 23.6409C29.6258 22.7524 30.0737 21.9763 30.668 21.3124C31.9423 19.8952 33.6967 19.1853 35.9307 19.1853C38.1648 19.1853 39.919 19.8952 41.1934 21.3124C41.7876 21.9763 42.2365 22.7524 42.5408 23.6409C42.8469 24.5293 43 25.5028 43 26.5609C43 27.5838 42.8685 28.5394 42.607 29.4279C42.3448 30.3164 41.9389 31.0961 41.3902 31.7697C41.2226 31.9732 41.0412 32.1631 40.8416 32.3408C39.391 29.0998 37.1526 25.3373 33.7826 22.2298C33.7826 22.2298 38.1853 26.7721 40.1916 32.8384C39.8872 33.0375 39.5526 33.2151 39.1906 33.3715C38.8252 33.528 38.433 33.6544 38.0152 33.7481C37.1363 30.9165 35.6202 26.9338 33.5616 24.8721C33.5616 24.8721 36.2755 28.0751 37.1939 33.8906C36.7931 33.9391 36.3718 33.9629 35.9307 33.9629C34.6744 33.9629 33.5917 33.7703 32.6845 33.3848C31.7764 32.9986 31.0429 32.4655 30.4856 31.7829C29.9268 31.1014 29.5166 30.3162 29.2534 29.4278L29.2191 29.304V31.9986C29.2191 32.5902 29.0737 33.0667 28.7865 33.4257C28.4984 33.7845 28.0049 33.9631 27.3075 33.9631C26.6093 33.9631 26.1165 33.7846 25.8285 33.4257C25.5403 33.0667 25.3959 32.5902 25.3959 31.9986V25.1348C25.3959 24.3082 25.1964 23.6497 24.7956 23.1554C24.3932 22.6622 23.7912 22.4155 22.9872 22.4155C22.2545 22.4155 21.5864 22.6984 20.9853 23.2642C20.3826 23.8291 20.0807 24.578 20.0807 25.5114V31.9986C20.0807 32.5902 19.9379 33.0667 19.6499 33.4257C19.361 33.7845 18.8682 33.9631 18.17 33.9631C17.4717 33.9631 16.979 33.7846 16.6909 33.4257C16.402 33.0667 16.2593 32.5902 16.2593 31.9986Z" fill="white"/>
<path d="M87.7289 22.5042C89.062 33.2522 84.957 36.4737 88.1453 37.4071C88.1453 37.4071 89.8711 37.941 90.719 36.1475C91.3987 34.7091 92.0864 31.4091 90.9478 25.7134C90.9478 25.7134 89.1086 15.0798 81.7036 10.7407C81.7037 10.7407 86.7612 14.6969 87.7289 22.5042Z" fill="white"/>
<path d="M57.8783 31.9263C58.0582 32.4736 58.2836 32.832 58.5539 33.0037C58.8251 33.1738 59.3872 33.2594 60.2412 33.2594C61.0943 33.2594 61.6573 33.1738 61.9275 33.0037C62.1978 32.832 62.4242 32.4736 62.604 31.9263L66.0009 22.0821C66.0663 21.894 66.1194 21.7143 66.1591 21.5433C66.2023 21.3724 66.2222 21.236 66.2222 21.1332C66.2222 20.5012 66.0506 20.0185 65.7048 19.6852C65.3608 19.351 64.9504 19.1853 64.4754 19.1853C64.1627 19.1853 63.8958 19.2449 63.6752 19.364C63.4538 19.484 63.2732 19.6291 63.1338 19.8001C62.9937 19.9711 62.8918 20.1377 62.8254 20.3C62.7599 20.4623 62.7101 20.6118 62.6778 20.7489L60.2643 29.209H60.2162L57.8036 20.7489C57.7705 20.6118 57.7216 20.4581 57.6569 20.2871C57.5897 20.1161 57.4927 19.9494 57.3609 19.7872C57.2299 19.6248 57.0484 19.484 56.8195 19.364C56.589 19.2449 56.3187 19.1853 56.007 19.1853C55.5311 19.1853 55.1215 19.351 54.7766 19.6852C54.4308 20.0185 54.2593 20.5012 54.2593 21.1332C54.2593 21.236 54.2799 21.3724 54.3206 21.5433C54.363 21.7143 54.4144 21.894 54.4807 22.0821L57.8783 31.9263Z" fill="white"/>
<path d="M69.8381 24.7739C70.0358 23.8339 70.4161 23.1035 70.9765 22.5818C71.5377 22.0612 72.2557 21.8004 73.1305 21.8004C73.9236 21.8004 74.6041 22.0785 75.1743 22.6328C75.7431 23.1888 76.0766 23.9028 76.176 24.7739H69.8381ZM78.0081 26.9274C78.6194 26.9274 79.0365 26.816 79.259 26.5941C79.4817 26.3714 79.5925 25.9448 79.5925 25.3128C79.5925 24.5261 79.4492 23.77 79.1588 23.0438C78.8704 22.3176 78.4416 21.6588 77.8729 21.0691C77.3017 20.4804 76.6087 20.0193 75.7922 19.6852C74.9752 19.3519 74.0635 19.1853 73.0562 19.1853C70.9439 19.1853 69.2759 19.8474 68.0551 21.1719C66.8334 22.4972 66.2222 24.2613 66.2222 26.4662C66.2222 27.3201 66.3547 28.149 66.6191 28.9528C66.8827 29.7558 67.2955 30.4817 67.8559 31.1312C68.418 31.7813 69.1452 32.2974 70.0357 32.6816C70.9271 33.0668 71.9755 33.2594 73.1805 33.2594C73.7574 33.2594 74.3722 33.1903 75.025 33.0539C75.6772 32.9175 76.2944 32.7076 76.8823 32.4263C77.4684 32.144 77.9421 31.7934 78.3059 31.3746C78.6693 30.9567 78.8504 30.4818 78.8504 29.9519C78.8504 29.5935 78.7061 29.2603 78.4157 28.9529C78.1273 28.6447 77.7771 28.491 77.365 28.491C77.0841 28.491 76.8456 28.5506 76.6462 28.6706C76.4485 28.7906 76.2251 28.9693 75.9789 29.2093C75.5819 29.5676 75.1901 29.8457 74.8008 30.0416C74.4138 30.2384 73.8742 30.337 73.1804 30.337C72.1405 30.337 71.3223 30.0209 70.7294 29.389C70.134 28.7562 69.838 27.9358 69.838 26.9274H78.0081Z" fill="white"/>
<path d="M92.2593 26.2088C92.2593 27.1827 92.3836 28.0936 92.6312 28.9397C92.878 29.785 93.2676 30.5327 93.7945 31.1819C94.323 31.8312 95.0161 32.3397 95.8742 32.7075C96.7324 33.0744 97.7562 33.2594 98.9444 33.2594C100.133 33.2594 101.16 33.0701 102.026 32.6947C102.893 32.3189 103.587 31.8106 104.106 31.1691C104.626 30.5285 105.01 29.785 105.257 28.9399C105.505 28.0937 105.63 27.1828 105.63 26.209C105.63 25.2005 105.484 24.2743 105.195 23.4272C104.908 22.5819 104.482 21.8419 103.921 21.2109C102.716 19.8605 101.057 19.1853 98.9444 19.1853C96.8306 19.1853 95.1729 19.8605 93.9688 21.2109C93.4058 21.8419 92.9814 22.5819 92.6936 23.4272C92.4044 24.2742 92.2593 25.2004 92.2593 26.2088ZM95.8742 26.2088C95.8742 24.9267 96.1352 23.8976 96.6548 23.1205C97.1751 22.3426 97.9381 21.9532 98.9445 21.9532C99.951 21.9532 100.714 22.3426 101.235 23.1205C101.755 23.8976 102.014 24.9267 102.014 26.2088C102.014 27.4391 101.759 28.4605 101.247 29.2721C100.735 30.0847 99.9679 30.4904 98.9446 30.4904C97.9207 30.4904 97.1527 30.0847 96.6424 29.2721C96.1301 28.4605 95.8742 27.4392 95.8742 26.2088Z" fill="white"/>
<path d="M82.7936 20.5313C82.7936 29.7176 79.0477 32.0084 81.6043 33.1222C81.6043 33.1222 82.9839 33.7481 83.8737 32.3243C84.5889 31.1834 85.5014 28.4749 85.1408 23.5627C85.1408 23.5627 85.0612 17.0522 79.5925 12.8518C79.5925 12.8519 82.7936 16.5716 82.7936 20.5313Z" fill="white"/>
<path d="M110.009 29.6586C109.919 29.6106 109.66 29.5014 109.333 29.5014C108.676 29.5014 108.355 29.9113 108.355 30.4573C108.355 30.9906 108.698 31.4205 109.339 31.4205C109.619 31.4205 109.885 31.3457 110.045 31.2433L110.129 31.5028C109.885 31.66 109.564 31.7145 109.27 31.7145C108.461 31.7145 107.993 31.1676 107.993 30.4781C107.993 29.6996 108.621 29.2075 109.326 29.2075C109.689 29.2075 110.004 29.3099 110.094 29.3921L110.009 29.6586ZM109.152 28.6138C108.153 28.6138 107.385 29.4194 107.385 30.4574C107.385 31.4753 108.153 32.2681 109.158 32.2749C110.142 32.2816 110.911 31.4753 110.911 30.4373C110.911 29.4194 110.143 28.6138 109.158 28.6138H109.152ZM109.167 28.3333C110.338 28.3333 111.259 29.2756 111.259 30.4373C111.259 31.6122 110.338 32.5555 109.158 32.5555C107.972 32.5555 107.037 31.6122 107.037 30.4373C107.037 29.2757 107.972 28.3333 109.158 28.3333H109.167Z" fill="white"/>
</g>
<defs>
<filter id="filter0_d_21_515" x="0.777778" y="0.185185" width="122.444" height="58.7345" filterUnits="userSpaceOnUse" color-interpolation-filters="sRGB">
<feFlood flood-opacity="0" result="BackgroundImageFix"/>
<feColorMatrix in="SourceAlpha" type="matrix" values="0 0 0 0 0 0 0 0 0 0 0 0 0 0 0 0 0 0 127 0" result="hardAlpha"/>
<feOffset dy="1.40741"/>
<feGaussianBlur stdDeviation="2.11111"/>
<feColorMatrix type="matrix" values="0 0 0 0 0 0 0 0 0 0 0 0 0 0 0 0 0 0 0.16 0"/>
<feBlend mode="normal" in2="BackgroundImageFix" result="effect1_dropShadow_21_515"/>
<feBlend mode="normal" in="SourceGraphic" in2="effect1_dropShadow_21_515" result="shape"/>
</filter>
</defs>
</svg>
