<svg width="80" height="80" viewBox="0 0 80 80" fill="none" xmlns="http://www.w3.org/2000/svg">
<circle cx="40" cy="40" r="40" fill="white"/>
<path d="M32.5479 40.8972C32.5479 36.1843 33.5285 31.7515 35.2446 27.9091C34.8993 27.5839 34.6692 27.1336 34.6242 26.6333C31.5272 26.068 28.4753 26.0429 25.6386 26.5433C25.3134 32.8472 27.8049 39.8566 32.8831 45.6252C32.6629 44.0942 32.5479 42.5132 32.5479 40.8972Z" fill="#43B5B5"/>
<path d="M37.3608 49.8281C39.5222 51.4992 41.8236 52.825 44.1751 53.8006C44.6004 53.0401 44.9906 52.2496 45.3508 51.4291C45.1507 51.234 44.9956 50.9989 44.8905 50.7387C42.434 50.7487 39.9024 50.4535 37.3608 49.8281Z" fill="#43B5B5"/>
<path d="M38.2814 27.5547C37.9212 28.095 37.3108 28.4553 36.6104 28.4553C36.5603 28.4553 36.5103 28.4553 36.4653 28.4502C34.8192 32.1275 33.8787 36.3802 33.8787 40.898C33.8787 42.6541 34.0187 44.3702 34.2889 46.0312C35.2295 46.1963 35.9399 47.0169 35.9399 48.0025C35.9399 48.0225 35.9399 48.0425 35.9399 48.0575C38.9368 48.9731 41.9487 49.4134 44.8355 49.4033C45.0757 48.6379 45.7611 48.0725 46.5866 48.0075C47.3921 45.2608 47.8324 42.2939 47.8324 39.197C47.8324 36.6854 47.5422 34.2589 47.0019 31.9674C46.5566 31.6472 46.1013 31.3371 45.636 31.0369C43.2645 29.5159 40.783 28.3602 38.2814 27.5547Z" fill="#43B5B5"/>
<path d="M48.6328 33.2129C48.988 35.1391 49.1731 37.1403 49.1731 39.1966C49.1731 42.4136 48.7178 45.4956 47.8823 48.3524C48.1725 48.5525 48.4077 48.8277 48.5577 49.1479C51.9249 48.6776 55.0268 47.5719 57.6334 45.9008C56.0975 41.2729 53.0055 36.7901 48.6328 33.2129Z" fill="#43B5B5"/>
<path d="M38.1814 25.2138C38.4115 25.504 38.5616 25.8642 38.6017 26.2545C41.2383 27.095 43.8599 28.3107 46.3615 29.9167C46.3965 29.9418 46.4316 29.9618 46.4716 29.9868C45.3959 26.5096 43.7349 23.4027 41.6386 20.8711C40.3528 22.1369 39.192 23.5978 38.1814 25.2138Z" fill="#43B5B5"/>
<path d="M40.0126 20C34.9194 20 30.2715 21.9012 26.7393 25.0331C29.3709 24.7179 32.1426 24.818 34.9444 25.3383C35.3046 24.803 35.915 24.4528 36.6054 24.4528C36.7555 24.4528 36.9056 24.4678 37.0457 24.5028C38.0863 22.8368 39.2821 21.3258 40.6079 20.01C40.4128 20 40.2127 20 40.0126 20Z" fill="#43B5B5"/>
<path d="M48.1927 31.1772C53.3309 34.9745 56.9682 39.9377 58.7793 45.1059C59.0295 44.9158 59.2746 44.7256 59.5148 44.5255C59.85 43.0746 60.0251 41.5637 60.0251 40.0127C60.0251 29.9114 52.5404 21.5562 42.8093 20.1953C45.2609 23.2172 47.132 26.9695 48.1927 31.1772Z" fill="#43B5B5"/>
<path d="M58.2689 48.2172C58.1989 47.887 58.1188 47.5568 58.0288 47.2266C55.3171 48.8926 52.1301 49.9983 48.6929 50.4736C48.4778 51.3491 47.6923 51.9995 46.7467 51.9995C46.6817 51.9995 46.6217 51.9945 46.5616 51.9895C46.2164 52.78 45.8362 53.5455 45.4309 54.286C47.7424 55.1165 50.0838 55.6068 52.3652 55.7519C54.8968 53.7657 56.9331 51.184 58.2689 48.2172Z" fill="#43B5B5"/>
<path d="M33.8186 49.9983C32.773 49.9333 31.9425 49.0628 31.9425 48.0021C27.0344 45.8608 22.9669 42.6988 20.025 39.0215C20.01 39.3467 20 39.6769 20 40.0121C20 50.7188 28.4103 59.4643 38.9869 59.9996C36.7054 57.2179 34.9243 53.8107 33.8186 49.9983Z" fill="#43B5B5"/>
<path d="M43.4847 54.9665C40.5729 53.7358 37.7361 51.9847 35.1345 49.7383C36.2052 53.3655 37.9113 56.6026 40.0826 59.2292C41.3434 57.9834 42.4891 56.5525 43.4847 54.9665Z" fill="#43B5B5"/>
<path d="M44.7506 55.4609C43.7199 57.137 42.5292 58.6579 41.2134 59.9838C44.6855 59.7786 47.9226 58.688 50.6943 56.9369C48.7181 56.6817 46.7218 56.1914 44.7506 55.4609Z" fill="#43B5B5"/>
<path d="M31.8724 46.5061C26.8642 40.8175 24.2676 33.9782 24.2676 27.6543C22.1713 30.326 20.7354 33.543 20.2151 37.0552C22.9568 40.8926 26.9543 44.2347 31.8724 46.5061Z" fill="#43B5B5"/>
</svg>
