<svg width="104" height="104" viewBox="0 0 104 104" fill="none" xmlns="http://www.w3.org/2000/svg">
<circle opacity="0.2" cx="52" cy="52" r="52" fill="white"/>
<circle cx="52" cy="52" r="40" fill="white"/>
<path fill-rule="evenodd" clip-rule="evenodd" d="M55 31C55 32.6584 53.6522 34 52 34C50.3358 34 49 32.6584 49 31C49 29.3416 50.3358 28 52 28C53.6522 28 55 29.3416 55 31ZM49 73C49 71.3358 50.3358 70 52 70C53.6642 70 55 71.3358 55 73C55 74.6584 53.6642 76 52 76C50.3358 76 49 74.6584 49 73ZM34 51.9972C34 50.3388 32.6522 48.9972 31 48.9972C29.3358 48.9972 28 50.3388 28 51.9972C28 53.6585 29.3358 54.9972 31 54.9972C32.6522 54.9972 34 53.6585 34 51.9972ZM72.9942 54.9971C71.3474 54.9971 70 53.655 70 52C70 50.3358 71.3478 49 73.0115 49C74.6584 49 76.0115 50.3387 75.9942 51.9971C76.0115 53.6584 74.6584 55 72.9942 54.9971ZM40 52C40 45.3726 45.3674 40 52 40C58.6211 40 64 45.3726 64 52C64 58.6274 58.6211 64 52 64C45.3674 64 40 58.6274 40 52ZM39.1211 34.8788C40.2927 36.0504 40.2927 37.9488 39.1211 39.121C37.9494 40.2956 36.051 40.2927 34.8788 39.121C33.7067 37.9493 33.7071 36.0533 34.8788 34.8788C36.0505 33.7071 37.9494 33.7071 39.1211 34.8788ZM39.9995 67.0005C39.9995 68.657 38.6566 70 37 70C35.3434 70 34.0005 68.657 34.0005 67.0005C34.0005 65.3439 35.3434 64.0009 37 64.0009C38.6566 64.0009 39.9995 65.3439 39.9995 67.0005ZM64.8904 69.1212C63.7187 67.9495 63.7187 66.0511 64.8904 64.8789C66.062 63.7068 67.9604 63.7073 69.1326 64.8789C70.3163 66.0506 70.3163 67.949 69.1326 69.1212C67.9609 70.2929 66.0625 70.2929 64.8904 69.1212ZM64.8904 39.1236C66.0625 40.2928 67.9609 40.2928 69.1326 39.1236C70.3163 37.9548 70.3163 36.053 69.1326 34.8813C67.9604 33.7068 66.062 33.7092 64.8904 34.8784C63.7187 36.0535 63.7187 37.9461 64.8904 39.1236Z" fill="#9EBB31"/>
</svg>
