<svg width="132" height="16" viewBox="0 0 132 16" fill="none" xmlns="http://www.w3.org/2000/svg">
<path d="M82.3274 5.68858C22.908 5.69146 8.09074 -0.961691 0.886261 3.57995C0.886261 3.57995 -3.16251 6.03071 6.04745 7.6109C13.4267 8.88081 30.9459 10.5009 62.7195 9.85878C62.7195 9.85878 104.831 9.71547 132 0C131.999 4.07948e-08 107.939 5.68734 82.3274 5.68858Z" fill="#9EBB31"/>
<path d="M82.3274 10.6886C22.908 10.6915 8.09074 4.03831 0.886261 8.57995C0.886261 8.57995 -3.16251 11.0307 6.04745 12.6109C13.4267 13.8808 30.9459 15.5009 62.7195 14.8588C62.7195 14.8588 104.831 14.7155 132 5C131.999 5 107.939 10.6873 82.3274 10.6886Z" fill="#9EBB31"/>
</svg>
