<svg width="80" height="80" viewBox="0 0 80 80" fill="none" xmlns="http://www.w3.org/2000/svg">
<circle cx="40" cy="40" r="40" fill="#43B5B5"/>
<path fill-rule="evenodd" clip-rule="evenodd" d="M40.3157 39.0445C39.6883 39.0445 39.1778 38.5506 39.1778 37.9439C39.1778 37.3369 39.6883 36.8434 40.3157 36.8434C40.9431 36.8434 41.4531 37.3369 41.4531 37.9439C41.4531 38.5506 40.9431 39.0445 40.3157 39.0445ZM40.3157 36.0656C39.245 36.0656 38.374 36.9083 38.374 37.9439C38.374 38.9796 39.245 39.8223 40.3157 39.8223C41.386 39.8223 42.2569 38.9796 42.2569 37.9439C42.2569 36.9083 41.386 36.0656 40.3157 36.0656ZM43.8011 30.6107C43.8011 32.4412 42.2766 33.9388 40.3848 33.9388C38.4934 33.9388 36.9685 32.4412 36.9685 30.6107V27.1846C36.9685 25.3541 38.4934 23.8564 40.3848 23.8564C42.2766 23.8564 43.8011 25.3541 43.8011 27.1846V30.6107ZM40.3848 23.0787C38.0452 23.0787 36.1647 24.9208 36.1647 27.1846V30.6107C36.1647 32.8748 38.0452 34.7166 40.3848 34.7166C42.7247 34.7166 44.6049 32.8748 44.6049 30.6107V27.1846C44.6049 24.9208 42.7247 23.0787 40.3848 23.0787ZM42.1934 30.6449C42.1934 31.6447 41.4181 32.4583 40.3848 32.4583C39.3515 32.4583 38.5762 31.6447 38.5762 30.6449V27.1507C38.5762 26.1509 39.3515 25.3373 40.3848 25.3373C41.4181 25.3373 42.1934 26.1509 42.1934 27.1507V30.6449ZM40.3848 24.5596C38.9122 24.5596 37.7723 25.7254 37.7723 27.1507V30.6449C37.7723 32.0698 38.9122 33.2361 40.3848 33.2361C41.8578 33.2361 42.9972 32.0698 42.9972 30.6449V27.1507C42.9972 25.7254 41.8578 24.5596 40.3848 24.5596ZM49.7804 26.6187C49.5099 29.6536 48.9311 32.4346 48.5525 34.3708C48.2752 35.7887 47.7161 38.348 47.309 41.8951L48.0521 28.8121C48.2121 26.0918 47.4107 23.6702 45.795 22.0151C44.3939 20.5797 42.4478 19.7778 40.3161 19.7778H40.3149C38.1831 19.7778 36.2374 20.5797 34.8364 22.0151C33.2207 23.6702 32.4188 26.0859 32.5792 28.8078L33.3211 41.8768C32.914 38.3352 32.3557 35.7821 32.0788 34.3658C31.7002 32.4295 31.1211 29.6524 30.851 26.6172C30.7119 25.0581 30.8847 22.8512 31.2404 20.7088C31.7718 20.1585 34.258 17.9982 40.4809 17.9982C46.6748 17.9982 48.9158 20.1375 49.3869 20.6839C49.745 22.8348 49.9198 25.0534 49.7804 26.6187ZM47.2495 28.758L45.3211 62.6217C45.1784 65.0429 42.9293 66.8333 40.3161 66.8333H40.3153C37.7016 66.8333 35.4529 65.0483 35.3102 62.6271L33.3818 28.7098C33.0884 23.725 36.1976 20.5556 40.3149 20.5556H40.3161C44.4337 20.5556 47.5429 23.7728 47.2495 28.758ZM32.6339 15.4055C32.6717 15.3172 32.7074 15.2317 32.7424 15.1477C33.0989 15.0018 35.1402 14.2766 40.4515 14.2766C45.8368 14.2766 47.6333 15.0221 47.8873 15.1418C47.9227 15.227 47.9589 15.3137 47.9971 15.4032C48.4339 16.4259 48.8355 17.8563 49.1506 19.4025C47.8998 18.4688 45.3239 17.2204 40.4809 17.2204C35.4843 17.2204 32.7633 18.5462 31.4655 19.4803C31.7834 17.9057 32.1902 16.445 32.6339 15.4055ZM34.5747 13.0574C35.9746 12.8447 39.0412 12.7778 40.2309 12.7778H40.4001C41.5901 12.7778 44.6567 12.8454 46.0562 13.0578C46.7986 13.1706 47.1599 13.5727 47.4541 14.1226C46.4119 13.8317 44.3159 13.4762 40.4515 13.4762C36.4505 13.4762 34.2407 13.8441 33.1652 14.135C33.461 13.5711 33.8227 13.1713 34.5747 13.0574ZM50.2116 20.7123C50.2418 20.6104 50.2325 20.498 50.1702 20.4004C50.1674 20.3961 50.1618 20.3876 50.1545 20.3767C49.8121 18.3622 49.3133 16.4096 48.7402 15.0679C48.6787 14.9244 48.622 14.7856 48.5674 14.6526C48.1385 13.6096 47.6948 12.5196 46.1808 12.2897C44.6797 12.0618 41.4989 12 40.4001 12H40.2309C39.1268 12 35.9352 12.0611 34.4501 12.2862C32.9462 12.5149 32.5041 13.6038 32.0764 14.6514C32.0181 14.7942 31.957 14.9462 31.8911 15.1006C31.3236 16.4294 30.8285 18.3649 30.4864 20.3537C30.4832 20.358 30.4792 20.3689 30.4772 20.3712C30.3996 20.4747 30.3896 20.603 30.4262 20.7162C30.0729 22.8951 29.9101 25.1153 30.05 26.6837C30.2991 29.4809 30.8088 32.0601 31.1805 33.9466L31.2887 34.4941C31.3272 34.6909 31.3711 34.9083 31.4193 35.1478C31.8304 37.1934 32.5961 40.9998 32.8847 46.1674C33.1873 51.5885 33.799 60.6578 34.0301 61.9917C34.6937 65.8176 36.9541 68 40.2309 68H40.4001C43.6769 68 45.9372 65.8164 46.6012 61.9889C46.8347 60.6418 47.4452 51.5986 47.7467 46.2043C48.0364 41.0154 48.8045 37.1891 49.2173 35.1323C49.2631 34.9024 49.3053 34.694 49.3423 34.5042L49.4395 34.0096C49.8153 32.1017 50.3298 29.4895 50.5814 26.6654C50.7208 25.0993 50.5609 22.8885 50.2116 20.7123Z" fill="white" stroke="white" stroke-width="0.5"/>
</svg>
