<svg width="80" height="80" viewBox="0 0 80 80" fill="none" xmlns="http://www.w3.org/2000/svg">
<circle cx="40" cy="40" r="40" fill="#43B5B5"/>
<path fill-rule="evenodd" clip-rule="evenodd" d="M43.4622 12H36.7004C33.0121 12 30 15.0121 30 18.7004V28.8431C30 32.0396 32.213 34.6829 35.2251 35.4206C35.1636 35.605 35.1636 35.7279 35.1636 35.9123V37.7565C35.1636 38.6785 35.7783 39.5391 36.6389 39.785C36.9463 41.0144 37.9913 41.998 39.2822 42.3053V66.4636C39.2822 66.9553 39.7125 67.3856 40.2042 67.3856C40.696 67.3856 41.1263 66.9553 41.1263 66.4636V42.3053C42.3557 41.9365 43.2778 41.0144 43.5852 39.8465C44.4457 39.5391 45.0605 38.74 45.0605 37.8179V35.9738C45.0605 35.7894 45.0605 35.6664 44.999 35.482C48.0111 34.8058 50.224 32.1011 50.224 28.9046V18.7004C50.224 15.0121 47.212 12 43.4622 12ZM43.2163 35.9123V37.7565C43.2163 37.9409 43.0934 38.0638 42.909 38.0638H37.3151C37.1307 38.0638 37.0077 37.9409 37.0077 37.7565V35.9123C37.0077 35.7279 37.1307 35.605 37.3151 35.605H42.909C43.0319 35.605 43.2163 35.7279 43.2163 35.9123ZM40.0813 40.5841C39.528 40.5841 38.9748 40.3383 38.6674 39.9694H41.4951C41.1878 40.3383 40.696 40.5841 40.0813 40.5841ZM48.3799 28.8431C48.3799 31.5479 46.1669 33.6994 43.5237 33.6994H42.909H37.3151H36.7004C33.9956 33.6994 31.8441 31.4864 31.8441 28.8431V18.7004C31.8441 15.9956 34.0571 13.8441 36.7004 13.8441H43.4622C46.1669 13.8441 48.3184 16.0571 48.3184 18.7004V28.8431H48.3799ZM35.225 60.8052C34.8562 60.4364 34.303 60.4364 33.9341 60.8052C33.5653 61.174 33.5653 61.7273 33.9341 62.0961L36.8847 65.0467C37.0692 65.2311 37.3151 65.2926 37.5609 65.2926C37.8068 65.2926 38.0527 65.2311 38.2371 65.0467C38.6059 64.6779 38.6059 64.1247 38.2371 63.7558L35.225 60.8052ZM43.5237 65.109C43.3393 65.2934 43.0934 65.3549 42.8475 65.3549C42.6016 65.3549 42.3558 65.232 42.2328 65.109C41.864 64.7402 41.864 64.187 42.2328 63.8181L45.1834 60.8675C45.5523 60.4987 46.1055 60.4987 46.4743 60.8675C46.8432 61.2363 46.8432 61.7896 46.4743 62.1584L43.5237 65.109ZM37.3153 66.1557H33.1353C32.6435 66.1557 32.2132 66.586 32.2132 67.0777C32.2132 67.5695 32.6435 67.9998 33.1353 67.9998H37.3153C37.8071 67.9998 38.2374 67.5695 38.2374 67.0777C38.2374 66.586 37.8071 66.1557 37.3153 66.1557ZM43.032 66.1557H47.212C47.7653 66.1557 48.1341 66.586 48.1341 67.0777C48.1341 67.5695 47.7038 67.9998 47.212 67.9998H43.032C42.5402 67.9998 42.1099 67.5695 42.1099 67.0777C42.1099 66.586 42.5402 66.1557 43.032 66.1557Z" fill="white"/>
</svg>
