<svg width="80" height="80" viewBox="0 0 80 80" fill="none" xmlns="http://www.w3.org/2000/svg">
<circle cx="40" cy="40" r="40" fill="#43B5B5"/>
<path d="M40.1456 16C23 16 23 22.9888 23 26.7424C23 30.6016 23.1152 33.7504 23.1248 33.9904V34.192C23.1248 38.2048 24.6704 41.9872 27.4736 44.8576C28.712 46.1248 29.672 47.6032 30.3248 49.2544C30.8528 50.5984 32.0528 51.4816 33.4352 51.5968V54.9376H31.7552C31.2272 54.9376 30.7952 55.3696 30.7952 55.8976C30.7952 56.4256 31.2272 56.8576 31.7552 56.8576H33.4352V57.2896C33.4352 60.9952 36.4496 64 40.1456 64C43.8416 64 46.856 60.9856 46.856 57.2896V56.8576H48.536C49.064 56.8576 49.496 56.4256 49.496 55.8976C49.496 55.3696 49.064 54.9376 48.536 54.9376H46.856V51.5872C48.2288 51.4528 49.4384 50.5792 49.9376 49.312C50.5904 47.6416 51.5504 46.1536 52.7888 44.8768C55.6112 41.9776 57.1664 38.1856 57.1664 34.192V34C57.176 33.7696 57.3104 30.544 57.3104 26.7904C57.3104 23.0176 57.3104 16 40.1456 16ZM40.1456 17.92C55.3904 17.92 55.3904 23.2576 55.3904 26.7904C55.3904 29.4112 55.3232 31.7824 55.2848 33.0208H46.8368H33.4544H25.016C24.9776 31.7824 24.92 29.44 24.92 26.7424C24.92 23.2288 24.92 17.92 40.1456 17.92ZM45.0992 41.1136H35.192C34.7408 39.2416 34.472 37.12 34.424 34.9312H45.8768C45.8288 37.12 45.5504 39.2416 45.0992 41.1136ZM42.7856 49.696H37.5152C37.2176 47.488 36.7184 45.4624 36.0464 43.8112C35.9408 43.5616 35.8448 43.3024 35.7584 43.0336H44.552C44.456 43.3024 44.36 43.5616 44.264 43.8112C43.5824 45.472 43.0736 47.488 42.7856 49.696ZM32.504 34.9408C32.552 37.12 32.792 39.2224 33.2144 41.1232H26.9936C25.8608 39.2608 25.1792 37.1584 25.064 34.9408H32.504ZM32.1104 48.544C31.3616 46.6528 30.2576 44.9632 28.8464 43.5136C28.6928 43.36 28.568 43.1968 28.424 43.0432H33.7328C33.896 43.5616 34.0688 44.0704 34.2608 44.5504C34.8464 45.9904 35.288 47.7568 35.5568 49.7056H34.3952H33.7328C33.0224 49.696 32.3888 49.2448 32.1104 48.544ZM44.9456 57.2896C44.9456 59.9296 42.7952 62.08 40.1552 62.08C37.5152 62.08 35.3552 59.9296 35.3552 57.2896V51.616H36.6608H43.64H44.9456V57.2896ZM48.152 48.6208C47.9024 49.264 47.2304 49.696 46.4912 49.696H45.9056H44.7344C45.0128 47.7568 45.4448 45.9808 46.0304 44.5408C46.2224 44.0704 46.3952 43.5616 46.5584 43.0336H51.8576C51.704 43.2064 51.5696 43.3792 51.4064 43.5328C49.9952 45.0016 48.9008 46.7104 48.152 48.6208ZM53.288 41.1136H47.0768C47.4992 39.2128 47.7392 37.1104 47.7872 34.9312H55.2272C55.112 37.1392 54.4304 39.2416 53.288 41.1136Z" fill="white"/>
</svg>
