<svg width="80" height="80" viewBox="0 0 80 80" fill="none" xmlns="http://www.w3.org/2000/svg">
<circle cx="40" cy="40" r="40" fill="#43B5B5"/>
<path fill-rule="evenodd" clip-rule="evenodd" d="M17 42.04C17 29.3153 27.3153 19 40.04 19C52.7652 19 63.08 29.3153 63.08 42.0405C63.08 48.1994 60.6582 53.7899 56.723 57.9279C56.7722 51.9636 51.6972 49.5695 49.4746 48.6597C48.98 48.4584 48.1096 48.1195 47.8582 48.0217C48.938 49.5833 49.5412 51.4526 49.5412 53.4197C49.5412 53.7064 49.5284 54.1662 49.5023 54.5855C50.6015 54.9496 51.3992 55.9848 51.3992 57.2044C51.3992 58.7286 50.1612 59.9667 48.638 59.9667C47.1148 59.9667 45.8768 58.7286 45.8768 57.2044C45.8768 55.8394 46.8747 54.7059 48.1788 54.4862C48.2018 54.114 48.2141 53.69 48.2141 53.4187C48.2141 50.6288 46.8138 48.0621 44.4657 46.5471L42.2211 53.8442C41.9651 52.3445 41.6088 51.0497 41.3845 50.3134C41.4505 50.1533 41.5392 49.9842 41.6316 49.8082L41.6513 49.7707L41.6552 49.7631C41.8496 49.3922 42.05 49.0097 42.1136 48.6141C42.2426 47.8128 41.917 47.2875 41.6175 46.9168C41.3446 46.5835 40.83 46.5169 40.5561 46.7284L40.0344 47.0827L39.5408 46.7402C39.2269 46.5005 38.7359 46.5809 38.463 46.9178C38.164 47.286 37.8379 47.8113 37.9669 48.6151C38.0303 49.0119 38.2327 49.396 38.4285 49.7678L38.4292 49.7692C38.4373 49.7845 38.4453 49.7999 38.4533 49.8151C38.5444 49.9892 38.6311 50.1548 38.697 50.3134C38.4702 51.0568 38.1087 52.3717 37.8522 53.8928L35.5769 46.5712C33.3963 47.9981 32.041 49.8941 31.8838 52.4689C33.5243 52.9809 34.9794 55.1283 35.1238 57.4348C35.1366 57.4865 35.1463 57.5423 35.1463 57.5987V58.2673C35.1463 59.5827 34.2083 60.7208 32.9155 60.9727C32.873 60.9799 32.8305 60.9835 32.788 60.9835C32.4767 60.9835 32.1997 60.7638 32.1373 60.4485C32.0676 60.088 32.3027 59.7409 32.6611 59.6702C33.3343 59.5391 33.8212 58.9488 33.8212 58.2663V57.7267C33.8203 57.7199 33.8192 57.7133 33.8181 57.7068C33.8156 57.6924 33.8132 57.6783 33.8125 57.6632C33.7485 55.6131 32.274 53.6839 31.1706 53.667C30.0662 53.6844 28.5922 55.6131 28.5282 57.6632C28.5275 57.677 28.5255 57.6901 28.5234 57.7033C28.5222 57.711 28.5209 57.7187 28.52 57.7267V58.2663C28.52 58.9949 29.0673 59.6072 29.7928 59.6881C30.1569 59.7291 30.419 60.0568 30.3786 60.4198C30.3412 60.7597 30.054 61.0091 29.7212 61.0091C29.6961 61.0091 29.672 61.0081 29.6469 61.005C28.2486 60.8483 27.1949 59.6712 27.1949 58.2653V57.5966C27.1949 57.5403 27.2042 57.486 27.218 57.4328C27.3654 55.0796 28.8769 52.8903 30.5588 52.4372C30.6576 50.6667 31.2438 49.4358 32.2259 48.0166C32.2251 48.0166 32.2244 48.0171 32.2237 48.0174C32.2234 48.0175 32.2231 48.0176 32.2228 48.0176C32.2228 48.0176 31.185 48.4195 30.6074 48.6556C28.3853 49.5654 23.3109 51.96 23.3596 57.9228C19.4218 53.7894 17 48.1989 17 42.04ZM48.6355 58.8592C49.5478 58.8592 50.2907 58.1153 50.2907 57.2013C50.2907 56.2884 49.5478 55.5461 48.6355 55.5466C47.7226 55.5466 46.9786 56.2884 46.9786 57.2013C46.9786 58.1153 47.7226 58.8592 48.6355 58.8592ZM48.0907 37.946C48.4255 37.1069 48.5715 35.4818 48.5709 35.4818C48.6682 34.4972 48.4522 33.7318 48.2392 33.2996C48.1905 28.344 46.4026 27.1971 44.842 26.7548C44.8292 26.7511 44.8168 26.7476 44.8047 26.7443C44.7724 26.7353 44.7426 26.727 44.7151 26.7184C43.6373 25.6447 41.2852 25.1435 39.9908 25.1435C34.878 25.1435 31.9176 28.1121 31.8413 33.2991C31.6243 33.7297 31.4108 34.4849 31.506 35.4582C31.507 35.4731 31.6545 37.1094 31.9914 37.9532C32.2054 38.4765 32.5658 38.9209 33.0256 39.2327C33.1075 39.695 33.2007 40.1149 33.3021 40.484C33.7813 42.2351 36.1329 46.0751 40.0001 46.0751C43.7141 46.0751 46.247 42.4332 46.7769 40.4851C46.8967 40.0504 46.9894 39.6013 47.0544 39.2322C47.5137 38.9204 47.8741 38.4755 48.0907 37.946ZM44.4263 28.2225C45.1698 28.4341 46.7134 28.8734 46.7134 33.5023C46.7134 33.663 46.7641 33.8192 46.8562 33.9477C46.8962 34.0214 47.1342 34.4996 47.0513 35.3475C47.0226 35.7013 46.8706 36.8897 46.677 37.3766C46.5506 37.6858 46.3278 37.9244 46.0324 38.0642C45.8056 38.1727 45.6464 38.3862 45.6064 38.6346C45.5506 39.0058 45.4503 39.5582 45.3054 40.0825C44.9946 41.2283 43.0823 44.5497 39.9995 44.5497C36.9444 44.5497 35.0987 41.2749 34.7725 40.0804C34.6594 39.6714 34.558 39.1839 34.4709 38.6335C34.4315 38.3847 34.2723 38.1727 34.046 38.0642C33.7506 37.9244 33.5289 37.6868 33.4044 37.3817C33.2043 36.8779 33.0517 35.6522 33.0256 35.3327C32.9457 34.5181 33.1787 34.0317 33.2191 33.9533C33.3128 33.8243 33.3645 33.6676 33.3645 33.5048C33.3645 29.0325 35.6562 26.6691 39.9903 26.6691C41.2048 26.6691 43.0787 27.1791 43.6726 27.836C43.882 28.0679 44.158 28.1467 44.4247 28.222L44.4263 28.2225Z" fill="white"/>
</svg>
