<svg width="80" height="80" viewBox="0 0 80 80" fill="none" xmlns="http://www.w3.org/2000/svg">
<circle cx="40" cy="40" r="40" fill="#43B5B5"/>
<path fill-rule="evenodd" clip-rule="evenodd" d="M43 19C43 20.6584 41.6522 22 40 22C38.3358 22 37 20.6584 37 19C37 17.3416 38.3358 16 40 16C41.6522 16 43 17.3416 43 19ZM37 61C37 59.3358 38.3358 58 40 58C41.6642 58 43 59.3358 43 61C43 62.6584 41.6642 64 40 64C38.3358 64 37 62.6584 37 61ZM22 39.9972C22 38.3388 20.6522 36.9972 19 36.9972C17.3358 36.9972 16 38.3388 16 39.9972C16 41.6585 17.3358 42.9972 19 42.9972C20.6522 42.9972 22 41.6585 22 39.9972ZM60.9942 42.9971C59.3474 42.9971 58 41.655 58 40C58 38.3358 59.3478 37 61.0115 37C62.6584 37 64.0115 38.3387 63.9942 39.9971C64.0115 41.6584 62.6584 43 60.9942 42.9971ZM28 40C28 33.3726 33.3674 28 40 28C46.6211 28 52 33.3726 52 40C52 46.6274 46.6211 52 40 52C33.3674 52 28 46.6274 28 40ZM27.1211 22.8788C28.2927 24.0504 28.2927 25.9488 27.1211 27.121C25.9494 28.2956 24.051 28.2927 22.8788 27.121C21.7067 25.9493 21.7071 24.0533 22.8788 22.8788C24.0505 21.7071 25.9494 21.7071 27.1211 22.8788ZM27.9995 55.0005C27.9995 56.657 26.6566 58 25 58C23.3434 58 22.0005 56.657 22.0005 55.0005C22.0005 53.3439 23.3434 52.0009 25 52.0009C26.6566 52.0009 27.9995 53.3439 27.9995 55.0005ZM52.8904 57.1212C51.7187 55.9495 51.7187 54.0511 52.8904 52.8789C54.062 51.7068 55.9604 51.7073 57.1326 52.8789C58.3163 54.0506 58.3163 55.949 57.1326 57.1212C55.9609 58.2929 54.0625 58.2929 52.8904 57.1212ZM52.8904 27.1236C54.0625 28.2928 55.9609 28.2928 57.1326 27.1236C58.3163 25.9548 58.3163 24.053 57.1326 22.8813C55.9604 21.7068 54.062 21.7092 52.8904 22.8784C51.7187 24.0535 51.7187 25.9461 52.8904 27.1236Z" fill="white"/>
</svg>
