<svg width="80" height="80" viewBox="0 0 80 80" fill="none" xmlns="http://www.w3.org/2000/svg">
<circle cx="40" cy="40" r="40" fill="#43B5B5"/>
<path d="M40 16C26.7613 16 16 26.7613 16 40C16 53.2387 26.7613 64 40 64C53.2387 64 64 53.2387 64 40C64 26.7613 53.2387 16 40 16ZM49.1742 41.5484L48.2839 42.5548C47.7032 43.2129 46.8516 43.4452 46 43.2129L44.6452 42.8258C44.3742 42.7484 44.1419 42.8258 43.9484 43.0194L35.8968 52.0387C35.7419 52.1935 35.5484 52.3097 35.3161 52.3097L29.3161 52.3871L26.529 55.2516C26.3742 55.4065 26.1806 55.4839 25.9871 55.4839C25.7935 55.4839 25.6 55.4065 25.4452 55.2516C25.1355 54.9419 25.1355 54.4774 25.4452 54.1677L28.2323 51.3032L27.9226 45.4968C27.9226 45.3032 28 45.1097 28.1161 44.9548L36.129 35.9742C36.3226 35.7806 36.3613 35.471 36.2452 35.2387L35.7419 33.9226C35.4323 33.1097 35.5871 32.2194 36.1677 31.6L37.0581 30.5935C37.7161 29.8581 38.7613 29.6258 39.6516 30.0516C41.7419 31.0194 43.6387 32.2581 45.3032 33.8065C46.929 35.2774 48.2839 36.9806 49.4065 38.8774C49.9484 39.729 49.8323 40.8129 49.1742 41.5484ZM49.871 35.8581C49.4452 35.8581 49.0968 35.5097 49.0968 35.0839C49.0968 34.7355 49.0194 32.9161 47.471 31.4065C45.8065 29.7806 43.7935 29.8194 43.5613 29.8581C43.1355 29.8968 42.7871 29.5484 42.7484 29.1226C42.7097 28.6968 43.0581 28.3484 43.4839 28.3097C43.9484 28.271 46.4645 28.271 48.5548 30.3226C50.4903 32.2194 50.6452 34.5032 50.6452 35.1226C50.6452 35.5097 50.2968 35.8581 49.871 35.8581ZM52.8129 34.6968C52.3871 34.6968 52.0387 34.3484 52.0387 33.9226C52.0387 33.4581 51.9613 30.9419 49.7935 28.8129C47.5484 26.6065 44.9161 26.6452 44.4129 26.6839C43.9871 26.7226 43.6387 26.3742 43.6 25.9484C43.5613 25.5226 43.9097 25.1742 44.3355 25.1355C44.9548 25.0968 48.1677 25.0581 50.8774 27.729C53.471 30.2452 53.5871 33.3419 53.5871 33.9226C53.5871 34.3871 53.2387 34.6968 52.8129 34.6968ZM55.7548 33.6129C55.329 33.6129 54.9806 33.2645 54.9806 32.8387C54.9806 32.2194 54.8645 29.0065 52.1161 26.3355C49.2516 23.5484 45.8839 23.5484 45.2258 23.5871C44.8 23.6258 44.4516 23.2774 44.4129 22.8516C44.3742 22.4258 44.7226 22.0774 45.1484 22.0387C45.9226 22 49.871 21.9613 53.2 25.2129C56.3742 28.3097 56.529 32.1032 56.529 32.8387C56.529 33.2645 56.1806 33.6129 55.7548 33.6129Z" fill="white"/>
<path d="M44.2969 34.9281C42.7485 33.4959 40.9679 32.3346 39.0324 31.4443C38.7614 31.3281 38.413 31.3669 38.2195 31.5991L37.3291 32.6056C37.1356 32.7991 37.0969 33.0701 37.213 33.341L37.7162 34.6572C38.0259 35.4701 37.8711 36.3604 37.2904 36.9798L29.4324 45.7669L29.7033 50.8378L34.9679 50.7604L42.7872 42.012C43.3679 41.3539 44.2195 41.1217 45.0711 41.3539L46.4259 41.741C46.6969 41.8185 46.9291 41.741 47.1227 41.5475L48.013 40.541C48.2066 40.3088 48.2453 39.9604 48.0904 39.6894C47.084 37.9088 45.7679 36.3217 44.2969 34.9281ZM38.413 42.4765L35.9356 45.2636C35.7808 45.4185 35.5872 45.5346 35.355 45.5346C35.1614 45.5346 34.9679 45.4572 34.8517 45.341C34.5421 45.0701 34.5033 44.5669 34.7743 44.2572L37.2517 41.4701C37.5227 41.1604 38.0259 41.1217 38.3356 41.3927C38.6453 41.6636 38.684 42.1669 38.413 42.4765Z" fill="white"/>
</svg>
