<svg width="104" height="104" viewBox="0 0 104 104" fill="none" xmlns="http://www.w3.org/2000/svg">
<circle opacity="0.2" cx="52" cy="52" r="52" fill="white"/>
<circle cx="52" cy="52" r="40" fill="white"/>
<path d="M52 28C38.7613 28 28 38.7613 28 52C28 65.2387 38.7613 76 52 76C65.2387 76 76 65.2387 76 52C76 38.7613 65.2387 28 52 28ZM61.1742 53.5484L60.2839 54.5548C59.7032 55.2129 58.8516 55.4452 58 55.2129L56.6452 54.8258C56.3742 54.7484 56.1419 54.8258 55.9484 55.0194L47.8968 64.0387C47.7419 64.1935 47.5484 64.3097 47.3161 64.3097L41.3161 64.3871L38.529 67.2516C38.3742 67.4065 38.1806 67.4839 37.9871 67.4839C37.7935 67.4839 37.6 67.4065 37.4452 67.2516C37.1355 66.9419 37.1355 66.4774 37.4452 66.1677L40.2323 63.3032L39.9226 57.4968C39.9226 57.3032 40 57.1097 40.1161 56.9548L48.129 47.9742C48.3226 47.7806 48.3613 47.471 48.2452 47.2387L47.7419 45.9226C47.4323 45.1097 47.5871 44.2194 48.1677 43.6L49.0581 42.5935C49.7161 41.8581 50.7613 41.6258 51.6516 42.0516C53.7419 43.0194 55.6387 44.2581 57.3032 45.8065C58.929 47.2774 60.2839 48.9806 61.4065 50.8774C61.9484 51.729 61.8323 52.8129 61.1742 53.5484ZM61.871 47.8581C61.4452 47.8581 61.0968 47.5097 61.0968 47.0839C61.0968 46.7355 61.0194 44.9161 59.471 43.4065C57.8065 41.7806 55.7935 41.8194 55.5613 41.8581C55.1355 41.8968 54.7871 41.5484 54.7484 41.1226C54.7097 40.6968 55.0581 40.3484 55.4839 40.3097C55.9484 40.271 58.4645 40.271 60.5548 42.3226C62.4903 44.2194 62.6452 46.5032 62.6452 47.1226C62.6452 47.5097 62.2968 47.8581 61.871 47.8581ZM64.8129 46.6968C64.3871 46.6968 64.0387 46.3484 64.0387 45.9226C64.0387 45.4581 63.9613 42.9419 61.7935 40.8129C59.5484 38.6065 56.9161 38.6452 56.4129 38.6839C55.9871 38.7226 55.6387 38.3742 55.6 37.9484C55.5613 37.5226 55.9097 37.1742 56.3355 37.1355C56.9548 37.0968 60.1677 37.0581 62.8774 39.729C65.471 42.2452 65.5871 45.3419 65.5871 45.9226C65.5871 46.3871 65.2387 46.6968 64.8129 46.6968ZM67.7548 45.6129C67.329 45.6129 66.9806 45.2645 66.9806 44.8387C66.9806 44.2194 66.8645 41.0065 64.1161 38.3355C61.2516 35.5484 57.8839 35.5484 57.2258 35.5871C56.8 35.6258 56.4516 35.2774 56.4129 34.8516C56.3742 34.4258 56.7226 34.0774 57.1484 34.0387C57.9226 34 61.871 33.9613 65.2 37.2129C68.3742 40.3097 68.529 44.1032 68.529 44.8387C68.529 45.2645 68.1806 45.6129 67.7548 45.6129Z" fill="#9EBB31"/>
<path d="M56.2971 46.9281C54.7487 45.4959 52.9681 44.3346 51.0326 43.4443C50.7616 43.3281 50.4133 43.3669 50.2197 43.5991L49.3294 44.6056C49.1358 44.7991 49.0971 45.0701 49.2133 45.341L49.7165 46.6572C50.0262 47.4701 49.8713 48.3604 49.2907 48.9798L41.4326 57.7669L41.7036 62.8378L46.9681 62.7604L54.7875 54.012C55.3681 53.3539 56.2197 53.1217 57.0713 53.3539L58.4262 53.741C58.6971 53.8185 58.9294 53.741 59.1229 53.5475L60.0133 52.541C60.2068 52.3088 60.2455 51.9604 60.0907 51.6894C59.0842 49.9088 57.7681 48.3217 56.2971 46.9281ZM50.4133 54.4765L47.9358 57.2636C47.781 57.4185 47.5875 57.5346 47.3552 57.5346C47.1616 57.5346 46.9681 57.4572 46.852 57.341C46.5423 57.0701 46.5036 56.5669 46.7746 56.2572L49.252 53.4701C49.5229 53.1604 50.0262 53.1217 50.3358 53.3927C50.6455 53.6636 50.6842 54.1669 50.4133 54.4765Z" fill="#9EBB31"/>
</svg>
