<svg width="104" height="104" viewBox="0 0 104 104" fill="none" xmlns="http://www.w3.org/2000/svg">
<circle opacity="0.2" cx="52" cy="52" r="52" fill="white"/>
<circle cx="52" cy="52" r="40" fill="white"/>
<path d="M52.1456 28C35 28 35 34.9888 35 38.7424C35 42.6016 35.1152 45.7504 35.1248 45.9904V46.192C35.1248 50.2048 36.6704 53.9872 39.4736 56.8576C40.712 58.1248 41.672 59.6032 42.3248 61.2544C42.8528 62.5984 44.0528 63.4816 45.4352 63.5968V66.9376H43.7552C43.2272 66.9376 42.7952 67.3696 42.7952 67.8976C42.7952 68.4256 43.2272 68.8576 43.7552 68.8576H45.4352V69.2896C45.4352 72.9952 48.4496 76 52.1456 76C55.8416 76 58.856 72.9856 58.856 69.2896V68.8576H60.536C61.064 68.8576 61.496 68.4256 61.496 67.8976C61.496 67.3696 61.064 66.9376 60.536 66.9376H58.856V63.5872C60.2288 63.4528 61.4384 62.5792 61.9376 61.312C62.5904 59.6416 63.5504 58.1536 64.7888 56.8768C67.6112 53.9776 69.1664 50.1856 69.1664 46.192V46C69.176 45.7696 69.3104 42.544 69.3104 38.7904C69.3104 35.0176 69.3104 28 52.1456 28ZM52.1456 29.92C67.3904 29.92 67.3904 35.2576 67.3904 38.7904C67.3904 41.4112 67.3232 43.7824 67.2848 45.0208H58.8368H45.4544H37.016C36.9776 43.7824 36.92 41.44 36.92 38.7424C36.92 35.2288 36.92 29.92 52.1456 29.92ZM57.0992 53.1136H47.192C46.7408 51.2416 46.472 49.12 46.424 46.9312H57.8768C57.8288 49.12 57.5504 51.2416 57.0992 53.1136ZM54.7856 61.696H49.5152C49.2176 59.488 48.7184 57.4624 48.0464 55.8112C47.9408 55.5616 47.8448 55.3024 47.7584 55.0336H56.552C56.456 55.3024 56.36 55.5616 56.264 55.8112C55.5824 57.472 55.0736 59.488 54.7856 61.696ZM44.504 46.9408C44.552 49.12 44.792 51.2224 45.2144 53.1232H38.9936C37.8608 51.2608 37.1792 49.1584 37.064 46.9408H44.504ZM44.1104 60.544C43.3616 58.6528 42.2576 56.9632 40.8464 55.5136C40.6928 55.36 40.568 55.1968 40.424 55.0432H45.7328C45.896 55.5616 46.0688 56.0704 46.2608 56.5504C46.8464 57.9904 47.288 59.7568 47.5568 61.7056H46.3952H45.7328C45.0224 61.696 44.3888 61.2448 44.1104 60.544ZM56.9456 69.2896C56.9456 71.9296 54.7952 74.08 52.1552 74.08C49.5152 74.08 47.3552 71.9296 47.3552 69.2896V63.616H48.6608H55.64H56.9456V69.2896ZM60.152 60.6208C59.9024 61.264 59.2304 61.696 58.4912 61.696H57.9056H56.7344C57.0128 59.7568 57.4448 57.9808 58.0304 56.5408C58.2224 56.0704 58.3952 55.5616 58.5584 55.0336H63.8576C63.704 55.2064 63.5696 55.3792 63.4064 55.5328C61.9952 57.0016 60.9008 58.7104 60.152 60.6208ZM65.288 53.1136H59.0768C59.4992 51.2128 59.7392 49.1104 59.7872 46.9312H67.2272C67.112 49.1392 66.4304 51.2416 65.288 53.1136Z" fill="#9EBB31"/>
</svg>
