<svg width="60" height="72" viewBox="0 0 60 72" fill="none" xmlns="http://www.w3.org/2000/svg">
<path fill-rule="evenodd" clip-rule="evenodd" d="M0 28.359V0H28.056L60 31.875L48.618 43.257L54.165 57.456L17.145 72L0 28.359ZM5.283 33.603L18.84 68.112L50.28 55.758L46.302 45.573L31.875 60L5.283 33.603ZM3 3V27.108L31.866 55.764L55.755 31.878L26.814 3H3ZM39.75 27.879C38.505 26.634 37.155 26.028 35.616 26.028C33.882 26.028 31.935 26.751 29.103 28.437C27.057 29.67 25.749 30.192 24.735 30.192C23.652 30.192 21.486 28.965 21.852 26.535C22.008 25.5 22.602 24.447 23.568 23.478C25.524 21.522 28.2 20.934 30.396 23.157L32.628 20.925C31.2 19.5 29.34 18.549 27.345 18.549C25.647 18.549 23.97 19.233 22.356 20.58L20.478 18.702L18.384 20.799L20.343 22.755C18.636 25.233 17.817 28.818 20.571 31.566C23.604 34.599 27.135 33.189 30.81 30.87C32.61 29.733 34.059 29.181 35.235 29.181C37.002 29.184 38.775 30.675 38.469 32.955C38.313 34.113 37.689 35.247 36.606 36.321C35.253 37.674 33.894 38.358 32.565 38.358C31.311 38.358 30.324 37.782 29.418 36.972L27.201 39.189C28.59 40.563 30.447 41.448 32.406 41.448C34.038 41.448 35.667 40.845 37.242 39.657L38.862 41.271L40.953 39.18L39.393 37.617C41.622 34.929 42.864 30.99 39.75 27.876V27.879ZM12 6.003C15.312 6.003 18 8.691 18 12.003C18 15.315 15.312 18.003 12 18.003C8.688 18.003 6 15.315 6 12.003C6 8.691 8.688 6.003 12 6.003ZM12 9.003C13.656 9.003 15 10.347 15 12.003C15 13.659 13.656 15.003 12 15.003C10.344 15.003 9 13.659 9 12.003C9 10.347 10.344 9.003 12 9.003Z" fill="#43B5B5"/>
</svg>
