<svg width="41" height="42" viewBox="0 0 41 42" fill="none" xmlns="http://www.w3.org/2000/svg">
<path d="M39.2009 4.87764C37.9614 2.59608 36.1346 1.12301 33.7711 0.49576C32.5124 0.161699 31.3551 0 30.2328 0C27.9899 0 26.3029 0.666344 24.8099 1.2545C23.3957 1.81246 22.1737 2.29578 20.5007 2.29578C18.8277 2.29578 17.6075 1.81423 16.1897 1.25628C14.6985 0.668121 13.0115 0.00177679 10.7686 0.00177679C9.64457 0.00177679 8.48728 0.163476 7.23035 0.497537C4.86507 1.12301 3.03823 2.59608 1.80053 4.87764C-1.35317 10.6793 0.297102 20.2231 1.76906 24.9479C3.70603 31.1636 7.74955 41.6421 13.0483 41.9921C17.347 42.2498 18.2298 36.1194 18.7945 32.1054C18.8976 31.3804 19.0235 30.4777 19.0969 30.2591C19.3382 29.6692 19.7787 28.9673 20.5007 28.9673C21.2209 28.9673 21.6615 29.671 21.8957 30.2378C21.9779 30.4759 22.1038 31.3768 22.2052 32.1018C22.7576 36.0448 23.595 41.9992 27.7067 41.9992C27.7888 41.9992 27.8692 41.9975 27.9532 41.9921C33.2466 41.6421 37.2919 31.1636 39.2306 24.9479C40.7026 20.2231 42.3528 10.6811 39.2009 4.87764ZM36.1066 23.9404C33.1435 33.4416 29.6541 38.5414 27.7416 38.6657H27.7067C27.128 38.6657 26.2662 37.4432 25.4498 31.6291C25.2557 30.2503 25.1438 29.504 24.9271 28.9727C24.0565 26.8528 22.4412 25.6338 20.5007 25.6338C18.5567 25.6338 16.9432 26.8528 16.0708 28.9762C15.8558 29.504 15.7422 30.2503 15.5499 31.6327C14.7335 37.445 13.8716 38.6657 13.2598 38.6657C11.3438 38.5396 7.85444 33.4416 4.89304 23.9404C3.19032 18.4711 2.39141 10.6775 4.66927 6.48753C5.46644 5.01802 6.57478 4.11357 8.05723 3.71909C9.04145 3.45966 9.92952 3.33172 10.7704 3.33172C12.3997 3.33172 13.6059 3.80971 15.0062 4.36056C15.4939 4.55246 16.0184 4.74615 16.5638 4.93095C19.284 6.78072 22.3905 8.46702 26.6298 8.46702C27.5353 8.46702 28.2696 7.72071 28.2696 6.80027C28.2696 5.87982 27.5353 5.13352 26.6298 5.13352C25.8623 5.13352 25.1456 5.05 24.4638 4.92206C25.0005 4.74082 25.5162 4.54891 25.9969 4.36056C27.3972 3.80794 28.6035 3.33172 30.2328 3.33172C31.0719 3.33172 31.96 3.45966 32.9442 3.71909C34.4266 4.11179 35.535 5.01802 36.3339 6.48931C38.6082 10.6793 37.8111 18.4728 36.1066 23.9404Z" fill="white"/>
</svg>
