<svg width="42" height="42" viewBox="0 0 42 42" fill="none" xmlns="http://www.w3.org/2000/svg">
<path d="M39.8455 4.87764C38.5857 2.59608 36.7288 1.12301 34.3264 0.49576C33.047 0.161699 31.8707 0 30.7299 0C28.4502 0 26.7354 0.666344 25.2179 1.2545C23.7804 1.81246 22.5383 2.29578 20.8378 2.29578C19.1373 2.29578 17.897 1.81423 16.456 1.25628C14.9402 0.668121 13.2255 0.00177679 10.9457 0.00177679C9.80317 0.00177679 8.62685 0.163476 7.34925 0.497537C4.94508 1.12301 3.0882 2.59608 1.83014 4.87764C-1.37542 10.6793 0.301988 20.2231 1.79815 24.9479C3.76698 31.1636 7.87699 41.6421 13.2628 41.9921C17.6323 42.2498 18.5296 36.1194 19.1036 32.1054C19.2084 31.3804 19.3363 30.4777 19.411 30.2591C19.6562 29.6692 20.104 28.9673 20.8378 28.9673C21.5699 28.9673 22.0177 29.671 22.2558 30.2378C22.3393 30.4759 22.4673 31.3768 22.5703 32.1018C23.1318 36.0448 23.983 41.9992 28.1623 41.9992C28.2458 41.9992 28.3276 41.9975 28.4128 41.9921C33.7934 41.6421 37.9051 31.1636 39.8757 24.9479C41.3719 20.2231 43.0493 10.6811 39.8455 4.87764ZM36.7004 23.9404C33.6885 33.4416 30.1418 38.5414 28.1978 38.6657H28.1623C27.5741 38.6657 26.6981 37.4432 25.8683 31.6291C25.6711 30.2503 25.5573 29.504 25.337 28.9727C24.4521 26.8528 22.8102 25.6338 20.8378 25.6338C18.8619 25.6338 17.2218 26.8528 16.3351 28.9762C16.1166 29.504 16.0011 30.2503 15.8056 31.6327C14.9758 37.445 14.0998 38.6657 13.4778 38.6657C11.5303 38.5396 7.98361 33.4416 4.97351 23.9404C3.24279 18.4711 2.43074 10.6775 4.74606 6.48753C5.55634 5.01802 6.6829 4.11357 8.18973 3.71909C9.19014 3.45966 10.0928 3.33172 10.9475 3.33172C12.6036 3.33172 13.8297 3.80971 15.253 4.36056C15.7487 4.55246 16.2818 4.74615 16.8362 4.93095C19.6011 6.78072 22.7587 8.46702 27.0677 8.46702C27.9882 8.46702 28.7345 7.72071 28.7345 6.80027C28.7345 5.87982 27.9882 5.13352 27.0677 5.13352C26.2876 5.13352 25.5591 5.05 24.8661 4.92206C25.4116 4.74082 25.9358 4.54891 26.4245 4.36056C27.8478 3.80794 29.0739 3.33172 30.7299 3.33172C31.5829 3.33172 32.4855 3.45966 33.4859 3.71909C34.9928 4.11179 36.1193 5.01802 36.9314 6.48931C39.2432 10.6793 38.4329 18.4728 36.7004 23.9404Z" fill="#9EBB31"/>
</svg>
