<svg width="43" height="56" viewBox="0 0 43 56" fill="none" xmlns="http://www.w3.org/2000/svg">
<path d="M22.16 4.3392V0H20.56V4.3392C8.59904 4.74112 0 14.1261 0 26.96C0 33.705 2.25152 40.633 6.17728 45.968C8.36544 48.9414 10.8992 51.2032 13.6301 52.6848V56H15.2301V53.4598C16.9536 54.183 18.7418 54.5971 20.56 54.6925V56H22.16V54.6925C23.9942 54.5965 25.7984 54.1773 27.5354 53.4426V56H29.1354V52.6598C31.8483 51.1776 34.3661 48.9242 36.5421 45.9674C40.4678 40.6323 42.7194 33.7043 42.7194 26.9594C42.72 14.1261 34.121 4.74112 22.16 4.3392ZM22.16 10.1408C25.0566 10.4339 34.672 12.1466 38.8947 21.9277C35.2448 16.4499 29.2538 13.0547 22.16 12.8166V10.1408ZM40.6669 22.0838C36.2451 10.8544 25.1744 8.87616 22.16 8.54592V5.93856C31.7894 6.27264 38.8672 12.6227 40.6669 22.0838ZM20.56 5.93856V12.8166C11.7613 13.1117 4.65792 18.2656 1.61472 26.2234C1.92448 14.5146 9.58592 6.31936 20.56 5.93856ZM1.91872 31.2934C3.47584 21.4566 10.9101 14.768 20.56 14.4166V44.5741H17.0701V46.1741H20.56V46.6496H18.5632V48.2496H20.56V53.0899C11.6378 52.5376 3.5808 42.8288 1.91872 31.2934ZM22.16 53.0899V48.2496H24.0038V46.6496H22.16V46.1741H26.137V44.5741H22.16V14.4166C31.8106 14.7674 39.2442 21.456 40.8019 31.2928C39.1398 42.8282 31.0829 52.5376 22.16 53.0899Z" fill="#9EBB31"/>
<path d="M18.2066 29.0234L19.1142 27.705C11.2806 22.3129 5.9724 27.7581 5.91992 27.8138L7.08088 28.9146C7.12504 28.8691 11.4879 24.3968 18.2066 29.0234Z" fill="#9EBB31"/>
<path d="M24.1104 27.8138L25.2713 28.9146C25.3148 28.8698 29.6803 24.3981 36.3971 29.0234L37.3046 27.705C29.471 22.3129 24.1628 27.7581 24.1104 27.8138Z" fill="#9EBB31"/>
<path d="M19.0966 32.1986L18.4093 31.6322C16.4061 29.9817 14.3664 29.1445 12.3453 29.1445C8.86048 29.1445 6.7376 31.6303 6.64928 31.7359L6.18848 32.285L6.68448 32.8028C8.35936 34.5513 10.2518 35.4377 12.3088 35.4377C15.7475 35.4377 18.351 32.9282 18.4605 32.8213L19.0966 32.1986ZM12.255 32.7221C11.9946 32.7221 11.7827 32.5103 11.7827 32.2498C11.7827 31.9893 11.9946 31.7775 12.255 31.7775C12.5155 31.7775 12.7274 31.9893 12.7274 32.2498C12.7274 32.5103 12.5155 32.7221 12.255 32.7221ZM10.5853 31.0338C10.335 31.3762 10.1834 31.7941 10.1834 32.2492C10.1834 32.7548 10.3722 33.2124 10.6742 33.5721C9.8896 33.3167 9.13504 32.877 8.41696 32.2485C8.8784 31.862 9.624 31.3493 10.5853 31.0338ZM13.7814 33.6399C14.1168 33.2713 14.3274 32.7861 14.3274 32.2498C14.3274 31.7525 14.1437 31.302 13.8506 30.9436C14.76 31.1785 15.6829 31.6201 16.6109 32.2709C15.9766 32.7311 14.9725 33.3333 13.7814 33.6399Z" fill="#9EBB31"/>
<path d="M24.8739 31.7781L24.3779 32.2959L24.8387 32.845C24.9277 32.9506 27.0499 35.4363 30.5347 35.4363H30.5354C32.5552 35.4363 34.5955 34.5992 36.5987 32.9487L37.2855 32.3823L36.6493 31.7589C36.5405 31.652 33.9363 29.1426 30.4983 29.1426C28.4413 29.1432 26.5495 30.0296 24.8739 31.7781ZM30.4445 32.804C30.184 32.804 29.9722 32.5922 29.9722 32.3317C29.9722 32.0712 30.184 31.8594 30.4445 31.8594C30.705 31.8594 30.9168 32.0712 30.9168 32.3317C30.9168 32.5922 30.7056 32.804 30.4445 32.804ZM28.8631 31.0082C28.5616 31.3685 28.3722 31.8255 28.3722 32.3311C28.3722 32.7861 28.5239 33.204 28.7741 33.5464C27.8128 33.2303 27.0678 32.7183 26.6058 32.3317C27.3238 31.7032 28.079 31.2642 28.8631 31.0082ZM32.0407 33.6379C32.3338 33.2802 32.5175 32.829 32.5175 32.3317C32.5175 31.7954 32.3075 31.3103 31.9709 30.9416C33.1619 31.2482 34.1661 31.8511 34.7997 32.3106C33.8717 32.9615 32.9501 33.4024 32.0407 33.6379Z" fill="#9EBB31"/>
<path d="M25.0287 34.6927L23.4326 34.5762C23.4146 34.829 23.0236 40.7867 27.1439 43.0933L27.9253 41.6968C24.6978 39.8907 25.0249 34.7445 25.0287 34.6927Z" fill="#9EBB31"/>
<path d="M37.1661 34.1055C33.5655 38.1547 27.3025 36.5867 27.2397 36.5714L26.834 38.1189C26.9607 38.1522 28.329 38.4991 30.1857 38.4991C32.6362 38.4991 35.9373 37.8955 38.3617 35.1698L37.1661 34.1055Z" fill="#9EBB31"/>
<path d="M27.5352 18.6133H23.3125V20.2133H27.5352V18.6133Z" fill="#9EBB31"/>
<path d="M34.5643 21.6211H23.3125V23.2211H34.5643V21.6211Z" fill="#9EBB31"/>
<path d="M28.5332 45.3593L29.2308 46.7993C29.3972 46.7193 33.3249 44.7903 35.6596 41.2076L34.3195 40.334C32.2331 43.5353 28.5703 45.342 28.5332 45.3593Z" fill="#9EBB31"/>
</svg>
