<svg width="42" height="48" viewBox="0 0 42 48" fill="none" xmlns="http://www.w3.org/2000/svg">
<path d="M40.1996 15.8401C39.5468 13.6705 38.7116 11.7793 37.934 10.0033C36.5612 6.91206 35.3804 4.24323 35.7644 1.07521C35.7932 0.796806 35.7068 0.528004 35.5244 0.316802C35.3324 0.115201 35.0732 0 34.7948 0H6.59935C6.33054 0 6.07134 0.115201 5.88894 0.316802C5.70654 0.528004 5.62014 0.796806 5.64894 1.07521C6.03294 4.24323 4.84253 6.91206 3.47932 10.0033C2.69211 11.7793 1.85691 13.6705 1.2041 15.8401C13.0698 14.1409 28.3339 14.1409 40.1996 15.8401Z" fill="#9EBB31"/>
<path d="M5.80175 48.0005H19.7411V29.7892C16.3042 21.6195 3.46894 21.1395 0.147309 21.1587C0.0225078 22.3779 -0.0254929 23.6835 0.0129074 25.0947C0.406511 37.8148 4.74575 47.0597 4.92815 47.4533C5.09135 47.7797 5.42735 48.0005 5.80175 48.0005ZM15.5554 32.9956L15.7378 32.9572C16.237 32.842 16.7458 33.1492 16.861 33.658C16.9762 34.1572 16.669 34.666 16.1602 34.7812L15.949 34.8292C15.8818 34.8484 15.8146 34.8484 15.7474 34.8484C15.3154 34.8484 14.9314 34.5508 14.8354 34.1092C14.7298 33.6004 15.0562 33.1012 15.5554 32.9956ZM12.0226 33.4564C12.3106 33.4468 12.6082 33.4276 12.9058 33.4084C13.4338 33.3508 13.8754 33.7444 13.9138 34.2628C13.9618 34.7812 13.5778 35.2324 13.0594 35.2708C12.7234 35.2996 12.397 35.3188 12.0802 35.3284C12.0706 35.3284 12.061 35.3284 12.0514 35.3284C11.5522 35.3284 11.1394 34.9252 11.1202 34.426C11.1106 33.9076 11.5138 33.4756 12.0226 33.4564ZM7.43377 33.8596C7.54897 33.3604 8.03857 33.034 8.54738 33.1492C8.82578 33.2068 9.10418 33.2644 9.40178 33.3124C9.91059 33.3892 10.2658 33.8692 10.189 34.378C10.1218 34.8388 9.71859 35.1748 9.26738 35.1748C9.21938 35.1748 9.17138 35.1748 9.12338 35.1652C8.78738 35.1172 8.46098 35.05 8.14417 34.9828C7.63537 34.8676 7.31857 34.3684 7.43377 33.8596ZM3.30573 31.7092C3.12333 31.9108 2.87373 32.0068 2.62413 32.0068C2.39373 32.0068 2.16333 31.9204 1.99052 31.7572C1.73132 31.5172 1.50092 31.2772 1.28012 31.0468C0.934516 30.6628 0.953715 30.0772 1.33772 29.7316C1.72172 29.386 2.30733 29.4052 2.65293 29.7892C2.83533 29.9908 3.03693 30.1924 3.25773 30.4036C3.63214 30.7396 3.66094 31.3252 3.30573 31.7092ZM4.06414 32.266C4.32334 31.8148 4.88975 31.6612 5.34095 31.9204C5.58095 32.0548 5.84015 32.1892 6.10896 32.314C6.57936 32.5348 6.77136 33.0916 6.55056 33.562C6.38736 33.898 6.05136 34.0996 5.70575 34.0996C5.57135 34.0996 5.43695 34.0708 5.30255 34.0132C4.99535 33.8692 4.69775 33.7156 4.40974 33.5524C3.95854 33.2836 3.80494 32.7172 4.06414 32.266Z" fill="#9EBB31"/>
<path d="M20.701 27.4366C25.3282 19.8141 37.2131 19.2189 40.9956 19.2285C40.9188 18.7581 40.8228 18.2973 40.7268 17.8557C28.6595 16.0221 12.7521 16.0221 0.684818 17.8557C0.588817 18.2973 0.492816 18.7581 0.416016 19.2285C4.17925 19.2189 16.0737 19.8045 20.701 27.4366Z" fill="#9EBB31"/>
<path d="M21.6611 29.7892V48.0005H35.6004C35.9748 48.0005 36.3108 47.7797 36.4644 47.4533C36.6565 47.0597 40.9861 37.8148 41.3797 25.0947C41.4277 23.6835 41.3701 22.3779 41.2453 21.1587C37.9237 21.1395 25.098 21.6291 21.6611 29.7892ZM38.1541 30.3844C38.3749 30.1828 38.5765 29.9812 38.7589 29.77C39.1045 29.3956 39.6997 29.3668 40.0741 29.7124C40.4581 30.058 40.4773 30.6532 40.1317 31.0276C39.9109 31.2676 39.6805 31.5076 39.4213 31.738C39.2389 31.9012 39.0181 31.9876 38.7877 31.9876C38.5381 31.9876 38.2885 31.8916 38.1061 31.69C37.7509 31.3252 37.7701 30.7396 38.1541 30.3844ZM35.3124 32.3236C35.5812 32.1988 35.8308 32.0644 36.0804 31.93C36.5317 31.6708 37.0981 31.834 37.3573 32.2756C37.6165 32.7268 37.4533 33.2932 37.0117 33.5524C36.7237 33.7156 36.4261 33.8692 36.1189 34.0132C35.994 34.0708 35.85 34.0996 35.7156 34.0996C35.37 34.0996 35.034 33.898 34.8708 33.562C34.6404 33.1012 34.842 32.5444 35.3124 32.3236ZM32.01 33.3124C32.3076 33.2644 32.586 33.2164 32.8644 33.1492C33.3636 33.034 33.8628 33.3604 33.978 33.8596C34.0932 34.3588 33.7764 34.858 33.2676 34.9732C32.9508 35.0404 32.6244 35.1076 32.2884 35.1556C32.2404 35.1652 32.1924 35.1652 32.1444 35.1652C31.6932 35.1652 31.29 34.8292 31.2228 34.3684C31.146 33.8596 31.5012 33.3892 32.01 33.3124ZM28.506 33.4084C28.8036 33.4372 29.1012 33.4468 29.3892 33.4564C29.9076 33.4756 30.3108 33.9076 30.2916 34.4164C30.2724 34.9252 29.8596 35.3188 29.3604 35.3188C29.3508 35.3188 29.3412 35.3188 29.3316 35.3188C29.0148 35.3092 28.6788 35.29 28.3524 35.2612C27.8436 35.2132 27.4596 34.762 27.498 34.2532C27.5364 33.7444 27.978 33.3508 28.506 33.4084ZM24.5508 33.6484C24.666 33.1492 25.1748 32.8324 25.674 32.9476L25.8564 32.986C26.3652 33.0916 26.682 33.5908 26.5668 34.0996C26.4708 34.5412 26.0868 34.8388 25.6548 34.8388C25.5876 34.8388 25.5204 34.8292 25.4532 34.8196L25.242 34.7716C24.7428 34.6564 24.4356 34.1572 24.5508 33.6484Z" fill="#9EBB31"/>
</svg>
