<svg width="48" height="48" viewBox="0 0 48 48" fill="none" xmlns="http://www.w3.org/2000/svg">
<path d="M34.3448 0C30.7246 0.0043802 27.2539 1.44445 24.694 4.00434C22.1341 6.56424 20.694 10.0349 20.6897 13.6552V20.6897H13.6552C10.9544 20.6897 8.31435 21.4905 6.06877 22.991C3.82319 24.4914 2.07297 26.6241 1.03944 29.1192C0.005916 31.6144 -0.264501 34.36 0.262387 37.0088C0.789274 39.6577 2.0898 42.0908 3.99951 44.0005C5.90922 45.9102 8.34234 47.2107 10.9912 47.7376C13.64 48.2645 16.3856 47.9941 18.8808 46.9606C21.3759 45.927 23.5086 44.1768 25.009 41.9312C26.5095 39.6856 27.3103 37.0456 27.3103 34.3448V27.3103H34.3448C37.9664 27.3103 41.4396 25.8717 44.0005 23.3108C46.5613 20.75 48 17.2767 48 13.6552C48 10.0336 46.5613 6.56035 44.0005 3.99951C41.4396 1.43867 37.9664 0 34.3448 0ZM20.6897 34.3448C20.6897 35.7361 20.2771 37.0962 19.5041 38.253C18.7312 39.4098 17.6325 40.3114 16.3472 40.8438C15.0618 41.3763 13.6474 41.5156 12.2828 41.2441C10.9183 40.9727 9.66484 40.3027 8.68105 39.319C7.69726 38.3352 7.02729 37.0817 6.75586 35.7172C6.48443 34.3526 6.62374 32.9382 7.15616 31.6528C7.68859 30.3675 8.59021 29.2688 9.74703 28.4959C10.9038 27.7229 12.2639 27.3103 13.6552 27.3103H20.6897V34.3448ZM34.3448 20.6897H27.3103V13.6552C27.3103 12.2639 27.7229 10.9038 28.4959 9.74702C29.2688 8.59021 30.3675 7.68858 31.6528 7.15616C32.9382 6.62373 34.3526 6.48443 35.7172 6.75585C37.0817 7.02728 38.3352 7.69725 39.319 8.68104C40.3027 9.66483 40.9727 10.9183 41.2441 12.2828C41.5156 13.6474 41.3763 15.0618 40.8438 16.3471C40.3114 17.6325 39.4098 18.7312 38.253 19.5041C37.0962 20.2771 35.7361 20.6897 34.3448 20.6897Z" fill="#9EBB31"/>
</svg>
