<svg width="56" height="56" viewBox="0 0 56 56" fill="none" xmlns="http://www.w3.org/2000/svg">
<circle cx="28" cy="28" r="28" fill="#43B5B5"/>
<path d="M37.0921 21.2663L36.7493 21.2425L36.4098 21.2188L34.2714 21.0728L33.9251 21.049L33.5755 21.0253C33.5948 21.1076 33.6039 21.1919 33.6027 21.2765C33.603 21.4212 33.5777 21.5648 33.528 21.7007L33.8811 21.7245L34.2239 21.7483L36.3624 21.8977L36.7018 21.9214L37.0479 21.9452C37.0412 21.8877 37.0378 21.8299 37.0378 21.7721C37.0368 21.602 37.055 21.4323 37.0921 21.2663ZM27.0754 38.3942L26.8955 38.1091L25.6667 36.2116L25.4834 35.9231L25.2899 35.6278C25.1362 35.7989 24.9392 35.9255 24.7197 35.9944L24.9097 36.2897L25.0964 36.5782L26.3252 38.4791L26.5085 38.7642L26.6952 39.0561C26.8646 38.9035 27.0571 38.7787 27.2655 38.6861L27.0754 38.3942ZM31.3013 36.2116C31.1896 36.1477 31.0888 36.0664 31.0027 35.9707L30.8126 36.266L30.6292 36.5579L29.6517 38.0989L29.4684 38.384L29.2851 38.6759C29.4937 38.7685 29.6871 38.8921 29.8587 39.0425L30.0454 38.7506L30.2253 38.4655L31.2029 36.921L31.3862 36.6291L31.5763 36.3338C31.4795 36.3059 31.3869 36.2648 31.3013 36.2116ZM23.0292 34.3278L22.6763 34.3108L22.3301 34.2972L20.2018 34.2022L19.859 34.1852L19.5161 34.1716C19.5258 34.2482 19.5304 34.3253 19.5297 34.4025C19.5307 34.5518 19.5159 34.7009 19.4855 34.8471L19.8318 34.8641L20.1712 34.8777L22.3029 34.9727L22.6491 34.9897L22.9987 35.0032C22.9462 34.7796 22.9567 34.5458 23.0292 34.3278ZM19.7911 29.0394C19.7151 28.9928 19.6435 28.9394 19.5772 28.8799L19.4143 29.1887L19.2582 29.4942L18.2195 31.5037L18.0633 31.8024L17.9038 32.1113C18.1196 32.1824 18.3224 32.2878 18.5046 32.4236L18.6641 32.1147L18.8203 31.816L19.859 29.8099L20.0185 29.501L20.178 29.1887C20.0418 29.1602 19.9112 29.1098 19.7911 29.0394H19.7911ZM37.0378 34.915C37.0377 34.8173 37.0445 34.7198 37.0582 34.6231L36.7119 34.6299L36.3725 34.6367L33.9625 34.6842L33.6197 34.691L33.2701 34.6978C33.3328 34.9193 33.3363 35.1534 33.2803 35.3766L33.6333 35.3698L33.976 35.363L36.3861 35.3155L36.7255 35.3087L37.0717 35.302C37.0483 35.1743 37.037 35.0448 37.0378 34.915ZM19.9743 26.2865V26.2832L19.8081 25.9811L18.8882 24.311L18.7252 24.0157L18.5555 23.7102C18.377 23.8509 18.1777 23.9631 17.9649 24.0429L18.1312 24.345L18.2975 24.6437L19.2141 26.3103L19.3803 26.6124V26.6158L19.55 26.9179C19.7161 26.7584 19.9208 26.6449 20.144 26.5886L19.9743 26.2865ZM38.5177 32.3149L38.3616 32.0094L37.2448 29.8201L37.0887 29.5146L36.9326 29.2023C36.7726 29.3453 36.5804 29.4478 36.3725 29.501C36.3556 29.5044 36.342 29.5078 36.325 29.5112L36.4845 29.8201L36.6406 30.1289L37.7608 32.3183L37.9169 32.6204L38.0731 32.9293C38.2561 32.7959 38.4588 32.6917 38.6739 32.6204L38.5177 32.3149ZM38.0391 23.734L37.8762 24.0395L37.7166 24.3382L36.678 26.2865L36.5151 26.592L36.3488 26.9009C36.4802 26.9311 36.6061 26.9815 36.7221 27.0503C36.8048 27.0983 36.8812 27.1565 36.9496 27.2234L37.1125 26.9145L37.2754 26.609L38.3141 24.6573L38.4735 24.3586L38.6366 24.0531C38.4221 23.9782 38.2206 23.8706 38.0392 23.734H38.0391ZM31.6544 19.7083L31.4711 19.4198L30.2423 17.519L30.059 17.2338L29.8723 16.9453C29.7019 17.0957 29.5097 17.2193 29.3021 17.3119L29.4921 17.6038L29.672 17.8889L30.9008 19.7864L31.0841 20.0749L31.2776 20.3702C31.4314 20.1991 31.6283 20.0725 31.8479 20.0036L31.6544 19.7083ZM23.0598 21.0423L22.7068 21.066L22.364 21.0898L20.1576 21.2324L19.8182 21.2527L19.4787 21.2765C19.513 21.4394 19.5301 21.6055 19.5297 21.772C19.5297 21.8333 19.5263 21.8945 19.5195 21.9553L19.8657 21.9316L20.2052 21.9112L22.4115 21.7652L22.7544 21.7449L23.1074 21.7211C23.029 21.5036 23.0125 21.2686 23.0598 21.0423ZM26.7156 16.9589L26.5288 17.2542L26.349 17.5359L25.1474 19.4367L24.9641 19.7287L24.7774 20.0206C24.9964 20.0909 25.1938 20.2159 25.351 20.3838L25.5377 20.0919L25.7211 19.7965L26.9226 17.9025L27.1025 17.614L27.2858 17.3221C27.0784 17.2307 26.8861 17.1082 26.7156 16.9589Z" fill="white"/>
<path d="M20.2016 34.198C20.1706 33.7207 20.0299 33.2571 19.7902 32.8431C19.5506 32.4292 19.2186 32.0763 18.82 31.8118C18.6323 31.6851 18.4308 31.5803 18.2192 31.4995C17.8634 31.3601 17.4846 31.2887 17.1025 31.2891C16.4888 31.2894 15.889 31.4716 15.3789 31.8127C14.8687 32.1538 14.4711 32.6384 14.2363 33.2053C14.0015 33.7723 13.9399 34.3961 14.0595 34.998C14.179 35.5999 14.4743 36.1529 14.908 36.587C15.3417 37.0212 15.8943 37.3171 16.4961 37.4373C17.0979 37.5575 17.7218 37.4966 18.289 37.2624C18.8562 37.0282 19.3412 36.6311 19.6829 36.1213C20.0245 35.6116 20.2074 35.012 20.2084 34.3983C20.2084 34.3304 20.205 34.2625 20.2016 34.198ZM19.5295 34.3983C19.5304 34.5477 19.5156 34.6967 19.4853 34.843C19.4003 35.2961 19.188 35.7157 18.8732 36.0526C18.5584 36.3895 18.1542 36.6297 17.7078 36.7453C17.2615 36.8608 16.7915 36.8469 16.3528 36.705C15.914 36.5632 15.5248 36.2993 15.2306 35.9443C14.9364 35.5893 14.7494 35.1579 14.6914 34.7005C14.6334 34.2431 14.7069 33.7786 14.9033 33.3615C15.0997 32.9443 15.4108 32.5917 15.8003 32.3449C16.1897 32.0981 16.6414 31.9674 17.1025 31.9679C17.3756 31.9669 17.6468 32.014 17.9036 32.1071C18.1194 32.1782 18.3222 32.2836 18.5044 32.4194C18.7899 32.6198 19.0282 32.88 19.2029 33.1819C19.3776 33.4838 19.4844 33.8201 19.5159 34.1675C19.5256 34.244 19.5301 34.3212 19.5295 34.3983H19.5295Z" fill="white"/>
<path d="M28.2836 12C27.4593 12.001 26.669 12.3289 26.0862 12.9118C25.5033 13.4947 25.1754 14.2849 25.1743 15.1092C25.1737 15.5758 25.2791 16.0364 25.4825 16.4562C25.686 16.8761 25.9822 17.2442 26.3488 17.5328C26.5246 17.6776 26.7172 17.8007 26.9225 17.8994C27.3961 18.1292 27.9204 18.2351 28.4461 18.2072C28.9719 18.1792 29.482 18.0183 29.9286 17.7396C30.3753 17.4608 30.7439 17.0732 30.9999 16.6132C31.256 16.1532 31.3912 15.6357 31.3928 15.1092C31.3918 14.2849 31.0639 13.4947 30.481 12.9118C29.8981 12.3289 29.1079 12.001 28.2836 12ZM29.8721 16.9422C29.7017 17.0926 29.5095 17.2162 29.3019 17.3088C28.9867 17.4568 28.6431 17.5344 28.2949 17.5362C27.9467 17.5379 27.6023 17.4638 27.2856 17.3189C27.0782 17.2276 26.8859 17.1051 26.7154 16.9557C26.4448 16.7302 26.2273 16.4478 26.0782 16.1287C25.9292 15.8095 25.8524 15.4614 25.8532 15.1092C25.8521 14.7018 25.9535 14.3006 26.148 13.9425C26.3426 13.5845 26.624 13.2812 26.9664 13.0603C27.3088 12.8395 27.7013 12.7083 28.1077 12.6788C28.5141 12.6493 28.9213 12.7225 29.2921 12.8916C29.6628 13.0607 29.9851 13.3202 30.2292 13.6464C30.4734 13.9726 30.6316 14.355 30.6894 14.7583C30.7472 15.1617 30.7026 15.573 30.5598 15.9547C30.417 16.3363 30.1805 16.6759 29.8721 16.9422Z" fill="white"/>
<path d="M20.1574 21.2295C20.0437 20.5981 19.7368 20.0176 19.2792 19.5681C18.8215 19.1185 18.2357 18.822 17.6024 18.7195C16.9691 18.617 16.3197 18.7135 15.7436 18.9958C15.1675 19.278 14.6932 19.7321 14.3861 20.2953C14.0789 20.8585 13.9542 21.5032 14.0289 22.1403C14.1037 22.7774 14.3744 23.3757 14.8035 23.8525C15.2327 24.3293 15.7992 24.6612 16.425 24.8024C17.0508 24.9436 17.705 24.8871 18.2973 24.6408C18.5056 24.5515 18.7036 24.44 18.8879 24.3081C19.2766 24.0357 19.5975 23.6776 19.8258 23.2616C20.0542 22.8455 20.1839 22.3825 20.205 21.9083C20.2084 21.8608 20.2084 21.8167 20.2084 21.7692C20.2086 21.588 20.1915 21.4073 20.1574 21.2295ZM17.1025 24.1995C16.6434 24.1997 16.1937 24.0698 15.8054 23.8249C15.4171 23.5799 15.1063 23.2299 14.9088 22.8154C14.7113 22.401 14.6354 21.9391 14.6898 21.4832C14.7441 21.0273 14.9266 20.5962 15.216 20.2399C15.5054 19.8835 15.8899 19.6164 16.3249 19.4696C16.7599 19.3229 17.2276 19.3024 17.6737 19.4106C18.1199 19.5188 18.5262 19.7512 18.8457 20.081C19.1651 20.4107 19.3846 20.8242 19.4786 21.2736C19.5128 21.4365 19.5299 21.6026 19.5295 21.7692C19.5295 21.8304 19.5261 21.8916 19.5193 21.9524C19.4956 22.2974 19.3971 22.633 19.2306 22.9361C19.0642 23.2391 18.8337 23.5023 18.5553 23.7073C18.3768 23.848 18.1775 23.9602 17.9647 24.04C17.6894 24.1453 17.3972 24.1994 17.1025 24.1995Z" fill="white"/>
<path d="M39.4648 18.6641C38.7372 18.6644 38.0329 18.92 37.4746 19.3865C36.9163 19.853 36.5394 20.5007 36.4099 21.2166C36.3756 21.3991 36.3585 21.5843 36.3589 21.7699C36.3589 21.8107 36.3589 21.8548 36.3624 21.8955C36.3815 22.3799 36.514 22.853 36.7492 23.2769C36.9844 23.7007 37.3158 24.0635 37.7166 24.3361C37.9022 24.4662 38.1028 24.5733 38.3141 24.6551C38.6794 24.8042 39.0703 24.8803 39.4648 24.8792C40.2889 24.8792 41.0794 24.5518 41.6621 23.969C42.2449 23.3862 42.5723 22.5958 42.5723 21.7716C42.5723 20.9474 42.2449 20.157 41.6621 19.5742C41.0794 18.9915 40.2889 18.6641 39.4648 18.6641V18.6641ZM39.4648 24.2003C39.1819 24.2016 38.9012 24.1509 38.6366 24.0509C38.4222 23.9761 38.2206 23.8684 38.0392 23.7319C37.7522 23.5253 37.5145 23.2578 37.3431 22.9485C37.1718 22.6392 37.071 22.2959 37.0479 21.9431C37.0412 21.8856 37.0378 21.8278 37.0377 21.7699C37.0368 21.5998 37.055 21.4302 37.0921 21.2642C37.188 20.8157 37.4089 20.4036 37.7293 20.0755C38.0497 19.7473 38.4565 19.5167 38.9025 19.4101C39.3486 19.3035 39.8157 19.3255 40.2498 19.4733C40.6839 19.6212 41.0672 19.889 41.3555 20.2457C41.6437 20.6024 41.8251 21.0334 41.8785 21.4889C41.932 21.9444 41.8554 22.4057 41.6576 22.8194C41.4598 23.2331 41.1488 23.5824 40.7608 23.8268C40.3727 24.0712 39.9234 24.2007 39.4648 24.2003Z" fill="white"/>
<path d="M39.4648 31.8047C39.0877 31.804 38.7137 31.8731 38.3617 32.0084C38.1508 32.0894 37.9494 32.1929 37.7609 32.3172C37.3693 32.5737 37.041 32.9155 36.8005 33.317C36.5601 33.7186 36.4137 34.1694 36.3725 34.6356C36.3629 34.728 36.3583 34.821 36.3589 34.9139C36.3593 35.5285 36.5419 36.1293 36.8836 36.6401C37.2253 37.1509 37.7109 37.549 38.2788 37.7839C38.8468 38.0188 39.4716 38.08 40.0744 37.9597C40.6771 37.8395 41.2307 37.5433 41.665 37.1084C42.0994 36.6736 42.3951 36.1197 42.5146 35.5168C42.6342 34.914 42.5724 34.2892 42.3368 33.7215C42.1013 33.1538 41.7028 32.6687 41.1916 32.3275C40.6803 31.9863 40.0794 31.8044 39.4648 31.8047ZM39.4648 37.3409C38.8888 37.3401 38.3318 37.1344 37.8934 36.7607C37.455 36.387 37.1638 35.8695 37.0718 35.3009C37.0316 35.0767 37.027 34.8476 37.0582 34.622C37.0977 34.2839 37.2087 33.958 37.3836 33.666C37.5586 33.374 37.7936 33.1225 38.0731 32.9282C38.2562 32.7948 38.4589 32.6906 38.6739 32.6193C38.9278 32.529 39.1953 32.4831 39.4648 32.4836C39.784 32.4831 40.1002 32.5456 40.3953 32.6675C40.6903 32.7893 40.9584 32.9681 41.1843 33.1937C41.4102 33.4193 41.5894 33.6871 41.7117 33.982C41.8339 34.2769 41.8969 34.593 41.8969 34.9122C41.8969 35.2314 41.8339 35.5475 41.7117 35.8424C41.5894 36.1373 41.4102 36.4052 41.1843 36.6307C40.9584 36.8563 40.6903 37.0351 40.3953 37.157C40.1002 37.2788 39.784 37.3413 39.4648 37.3409V37.3409Z" fill="white"/>
<path d="M30.2252 38.463C30.0485 38.3194 29.8561 38.1964 29.6516 38.0964C29.2227 37.8848 28.7505 37.7756 28.2722 37.7774C27.794 37.7791 27.3226 37.8918 26.8953 38.1066C26.692 38.2082 26.5007 38.3323 26.3251 38.4766C25.8253 38.8819 25.4636 39.4322 25.2899 40.0518C25.1161 40.6713 25.1388 41.3295 25.3549 41.9356C25.5709 42.5416 25.9697 43.0658 26.4962 43.4356C27.0227 43.8055 27.651 44.003 28.2944 44.0007C28.9378 43.9985 29.5647 43.7967 30.0886 43.4231C30.6126 43.0496 31.0077 42.5227 31.2195 41.9151C31.4313 41.3075 31.4495 40.6492 31.2714 40.0309C31.0933 39.4126 30.7278 38.8648 30.2252 38.463ZM28.2836 43.3135C27.6397 43.3132 27.0223 43.0575 26.5666 42.6025C26.111 42.1476 25.8544 41.5304 25.8532 40.8865C25.8525 40.5383 25.9274 40.1941 26.0728 39.8776C26.2181 39.5611 26.4304 39.28 26.695 39.0536C26.8644 38.901 27.0569 38.7761 27.2653 38.6836C27.5838 38.5334 27.9315 38.4558 28.2836 38.4562C28.6291 38.456 28.9706 38.5301 29.2849 38.6734C29.4935 38.766 29.6869 38.8896 29.8586 39.04C30.2373 39.3617 30.5082 39.7919 30.6344 40.2725C30.7606 40.7531 30.7362 41.2609 30.5643 41.7271C30.3925 42.1933 30.0816 42.5956 29.6737 42.8793C29.2658 43.163 28.7805 43.3146 28.2836 43.3135H28.2836Z" fill="white"/>
<path d="M22.4251 27.3842C22.3558 27.1138 22.2311 26.8606 22.059 26.6408C21.8868 26.421 21.671 26.2393 21.425 26.1073C21.179 25.9752 20.9083 25.8956 20.63 25.8735C20.3517 25.8514 20.0718 25.8873 19.8081 25.979C19.3584 26.1371 18.9787 26.4483 18.7354 26.8581C18.4826 27.2844 18.3961 27.789 18.4926 28.2752C18.589 28.7613 18.8617 29.1947 19.2581 29.4921C19.3168 29.5401 19.3792 29.5833 19.4448 29.6211C19.5759 29.6978 19.7147 29.7604 19.8589 29.8078C20.2022 29.9171 20.5685 29.9325 20.9197 29.8523C21.2709 29.7722 21.5942 29.5995 21.8561 29.3521C22.118 29.1048 22.3089 28.7918 22.409 28.4458C22.509 28.0997 22.5146 27.7332 22.4251 27.3842ZM20.178 29.1866C20.0418 29.1581 19.9111 29.1077 19.7911 29.0373C19.7151 28.9908 19.6435 28.9374 19.5772 28.8778C19.3476 28.6715 19.1964 28.3922 19.1494 28.0871C19.1024 27.7821 19.1624 27.4702 19.3192 27.2044C19.3819 27.0976 19.4597 27.0005 19.55 26.9158C19.716 26.7563 19.9208 26.6428 20.144 26.5866C20.4003 26.5215 20.6701 26.5338 20.9194 26.622C21.1687 26.7102 21.3862 26.8703 21.5446 27.082C21.7029 27.2938 21.795 27.5477 21.8091 27.8117C21.8233 28.0757 21.7588 28.338 21.624 28.5655C21.4804 28.8094 21.2628 29.0012 21.0027 29.1129C20.7427 29.2246 20.4537 29.2504 20.178 29.1866V29.1866Z" fill="white"/>
<path d="M34.2715 21.0729C34.2396 20.758 34.1341 20.455 33.9635 20.1883C33.793 19.9217 33.562 19.6989 33.2895 19.538C33.0169 19.3771 32.7103 19.2826 32.3944 19.2621C32.0785 19.2415 31.7622 19.2956 31.4711 19.4199C31.0758 19.5875 30.745 19.8779 30.5275 20.2481C30.3466 20.5544 30.2499 20.903 30.2471 21.2587C30.2444 21.6144 30.3356 21.9645 30.5117 22.2735C30.6878 22.5826 30.9424 22.8396 31.2498 23.0186C31.5571 23.1976 31.9063 23.2922 32.262 23.2928C32.4316 23.2931 32.6004 23.2714 32.7644 23.2283C33.0216 23.1638 33.2634 23.0486 33.4755 22.8895C33.6877 22.7303 33.8659 22.5305 33.9999 22.3017C34.1028 22.1299 34.1784 21.9433 34.224 21.7484C34.2785 21.5276 34.2946 21.2991 34.2715 21.0729ZM33.6028 21.2766C33.6031 21.4213 33.5778 21.5649 33.5281 21.7009C33.5022 21.7903 33.4645 21.8759 33.4161 21.9554C33.3273 22.107 33.2093 22.2394 33.0689 22.3449C32.9284 22.4504 32.7684 22.5268 32.5981 22.5698C32.428 22.6155 32.2505 22.6264 32.0761 22.6019C31.9017 22.5774 31.7341 22.518 31.5832 22.4273C31.4315 22.3378 31.2991 22.2192 31.1936 22.0782C31.0881 21.9372 31.0117 21.7766 30.9688 21.6058C30.9233 21.4357 30.9125 21.2583 30.937 21.0839C30.9615 20.9096 31.0207 20.7419 31.1113 20.5909C31.1579 20.5111 31.2137 20.4371 31.2776 20.3703C31.4314 20.1992 31.6284 20.0726 31.8479 20.0037C31.9826 19.9589 32.1235 19.936 32.2654 19.9358C32.5054 19.9364 32.7409 20.0008 32.9477 20.1225C33.1114 20.2187 33.2523 20.3492 33.3607 20.5051C33.469 20.661 33.5424 20.8385 33.5756 21.0254C33.5949 21.1077 33.604 21.1921 33.6028 21.2766Z" fill="white"/>
<path d="M26.3282 20.7885C26.2625 20.5318 26.1464 20.2907 25.9867 20.0792C25.8271 19.8677 25.627 19.6899 25.3982 19.5563C25.318 19.5077 25.234 19.4657 25.147 19.4307C24.6985 19.2421 24.1969 19.2225 23.7351 19.3754C23.2732 19.5283 22.8824 19.8434 22.6351 20.2623C22.3665 20.7124 22.286 21.2502 22.4111 21.7592C22.5155 22.2004 22.7656 22.5935 23.121 22.875C23.4764 23.1565 23.9163 23.3099 24.3697 23.3105C24.5392 23.3108 24.7081 23.2891 24.8721 23.246C25.1293 23.1814 25.371 23.0662 25.5832 22.9071C25.7953 22.748 25.9736 22.5482 26.1076 22.3193C26.2433 22.0913 26.3327 21.8386 26.3706 21.5759C26.4085 21.3132 26.3941 21.0456 26.3282 20.7885ZM24.7057 22.5875C24.5356 22.6323 24.3582 22.6428 24.1839 22.6183C24.0097 22.5939 23.842 22.5349 23.6908 22.4449C23.4132 22.2816 23.2053 22.0218 23.107 21.7151C23.0286 21.4976 23.0121 21.2626 23.0594 21.0362C23.0867 20.8853 23.1407 20.7405 23.219 20.6086C23.4007 20.3031 23.6961 20.0822 24.0404 19.9942C24.1491 19.966 24.2608 19.9512 24.3731 19.9501C24.5565 19.9513 24.7378 19.9898 24.9059 20.0633C25.0739 20.1369 25.2252 20.2439 25.3506 20.3778C25.5046 20.5409 25.6145 20.7407 25.6698 20.9582C25.6964 21.0671 25.7101 21.1787 25.7104 21.2908C25.7105 21.5878 25.6119 21.8763 25.43 22.1111C25.2481 22.3458 24.9933 22.5134 24.7057 22.5875H24.7057Z" fill="white"/>
<path d="M37.2749 26.6037C37.2092 26.5516 37.14 26.5039 37.0678 26.4612C36.9438 26.3888 36.8131 26.3286 36.6775 26.2813C36.2399 26.1371 35.7661 26.1466 35.3347 26.3084C34.9032 26.4701 34.5399 26.7743 34.3049 27.1706C34.125 27.477 34.029 27.8253 34.0264 28.1806C34.0239 28.5358 34.1149 28.8855 34.2903 29.1945C34.4658 29.5034 34.7195 29.7607 35.0259 29.9405C35.3323 30.1203 35.6807 30.2163 36.036 30.2187C36.2065 30.2176 36.3763 30.1959 36.5417 30.1542C36.5757 30.144 36.6062 30.1373 36.6402 30.1237C36.8586 30.0581 37.0633 29.9534 37.2444 29.8148C37.4601 29.6573 37.6414 29.4575 37.7773 29.2276C38.0269 28.8039 38.1136 28.3038 38.0211 27.8209C37.9286 27.3379 37.6634 26.9052 37.2749 26.6037ZM36.3245 29.5059C35.994 29.5812 35.6471 29.5252 35.3571 29.3498C35.1049 29.1997 34.909 28.9709 34.7994 28.6987C34.6898 28.4264 34.6726 28.1257 34.7505 27.8428C34.8284 27.5598 34.997 27.3102 35.2304 27.1324C35.4639 26.9545 35.7493 26.8582 36.0427 26.8583C36.1457 26.859 36.2482 26.8715 36.3483 26.8956C36.4797 26.9258 36.6056 26.9762 36.7216 27.045C36.8043 27.093 36.8807 27.1512 36.9491 27.2181C37.1743 27.4253 37.3215 27.7036 37.366 28.0064C37.4105 28.3092 37.3496 28.6181 37.1935 28.8813C37.1234 28.9996 37.0352 29.1061 36.9321 29.197C36.772 29.3401 36.5799 29.4425 36.372 29.4957C36.3551 29.4991 36.3415 29.5025 36.3245 29.5059Z" fill="white"/>
<path d="M33.9624 34.6819C33.9106 34.4002 33.7989 34.133 33.6349 33.8982C33.471 33.6634 33.2585 33.4665 33.012 33.3208C32.5814 33.0658 32.0714 32.9798 31.5809 33.0796C31.0905 33.1793 30.6546 33.4577 30.3578 33.8606C30.061 34.2636 29.9244 34.7624 29.9745 35.2604C30.0247 35.7583 30.258 36.2199 30.6292 36.5556C30.7299 36.6461 30.839 36.7268 30.955 36.7966C31.0344 36.8434 31.1173 36.8842 31.2028 36.9188C31.4486 37.0236 31.7129 37.0778 31.9801 37.0783C32.1495 37.0769 32.3182 37.0553 32.4825 37.0138C32.8665 36.9158 33.213 36.7067 33.4786 36.4126C33.7443 36.1186 33.9173 35.7527 33.976 35.3608C34.0105 35.1354 34.006 34.9057 33.9624 34.6819ZM32.3161 36.3553C32.0724 36.419 31.8154 36.4108 31.5762 36.3315C31.4794 36.3036 31.3868 36.2625 31.3012 36.2093C31.1895 36.1454 31.0887 36.0641 31.0026 35.9684C30.8484 35.8071 30.7395 35.6081 30.6868 35.3913C30.5984 35.0474 30.6497 34.6826 30.8295 34.3764C30.9189 34.2247 31.0375 34.0923 31.1785 33.9868C31.3195 33.8814 31.4801 33.805 31.6509 33.762C31.7592 33.7324 31.8711 33.7175 31.9835 33.7179C32.2234 33.7187 32.4588 33.7832 32.6658 33.9046C32.962 34.08 33.1786 34.3635 33.27 34.6955C33.3327 34.917 33.3362 35.1511 33.2802 35.3743C33.2505 35.5033 33.2013 35.6269 33.1342 35.7409C33.0458 35.8928 32.9279 36.0255 32.7874 36.131C32.6469 36.2365 32.4866 36.3128 32.3161 36.3553Z" fill="white"/>
<path d="M26.2566 34.2188C26.192 33.9616 26.0768 33.7199 25.9177 33.5078C25.7586 33.2956 25.5588 33.1173 25.33 32.9833C24.8694 32.7115 24.3198 32.6336 23.8017 32.7666C23.2837 32.8996 22.8396 33.2327 22.5669 33.6927C22.4579 33.8799 22.3778 34.0824 22.3293 34.2935C22.2831 34.5156 22.2739 34.7439 22.3022 34.969C22.3404 35.2792 22.4503 35.5763 22.6231 35.8367C22.7959 36.0971 23.027 36.3137 23.2979 36.4695C23.5689 36.6252 23.8724 36.7158 24.1844 36.734C24.4964 36.7522 24.8084 36.6976 25.0957 36.5745C25.1607 36.5474 25.2241 36.5168 25.2858 36.4829C25.4236 36.4076 25.5513 36.3152 25.6659 36.2079C25.8128 36.0749 25.9386 35.9204 26.0393 35.7497C26.1754 35.5217 26.2647 35.269 26.302 35.0061C26.3393 34.7433 26.3239 34.4757 26.2566 34.2188ZM25.2892 35.6241C25.1354 35.7952 24.9385 35.9218 24.719 35.9907C24.541 36.0495 24.3525 36.07 24.1661 36.051C23.9796 36.0319 23.7992 35.9737 23.6367 35.8802C23.4743 35.7866 23.3334 35.6598 23.2234 35.5081C23.1133 35.3563 23.0365 35.183 22.998 34.9995C22.9455 34.7759 22.956 34.5421 23.0285 34.3241C23.0564 34.224 23.0975 34.1281 23.1507 34.039C23.2696 33.8386 23.4385 33.6726 23.6408 33.5572C23.8431 33.4417 24.0719 33.3808 24.3049 33.3804C24.5438 33.3806 24.7783 33.4451 24.9838 33.5672C25.2901 33.7486 25.5121 34.0439 25.6015 34.3886C25.6282 34.4975 25.6419 34.6091 25.6422 34.7212C25.643 34.9614 25.5785 35.1972 25.4555 35.4035C25.409 35.4833 25.3531 35.5574 25.2892 35.6241H25.2892Z" fill="white"/>
</svg>
