<svg width="203" height="136" viewBox="0 0 203 136" fill="none" xmlns="http://www.w3.org/2000/svg">
<g opacity="0.2">
<path d="M80.6029 49.2755C164.968 97.9891 191.314 100.942 197.921 113.124C197.921 113.124 201.714 119.829 187.377 114.463C175.886 110.169 149.718 98.0457 105.116 71.1117C105.116 71.1117 45.4388 36.3928 14.6128 0.695312C14.614 0.696001 44.2386 28.2783 80.6029 49.2755Z" fill="#9EBB31"/>
<path d="M73.3554 61.7859C154.863 115.127 181.03 119.563 186.926 132.082C186.926 132.082 190.329 138.982 176.307 132.82C165.07 127.888 139.615 114.321 96.5922 84.9439C96.5922 84.9439 38.9508 46.952 10.2095 9.61719C10.2095 9.61719 38.2228 38.7939 73.3554 61.7859Z" fill="#9EBB31"/>
</g>
</svg>
