<svg width="170" height="119" viewBox="0 0 170 119" fill="none" xmlns="http://www.w3.org/2000/svg">
<g opacity="0.2">
<path d="M102.992 42.7509C32.1051 83.683 9.1197 84.6957 4.1478 95.9338C4.1478 95.9338 1.27266 102.109 13.5211 97.9489C23.338 94.6208 45.5315 84.7922 82.9264 62.0193C82.9264 62.0193 133.052 32.8151 157.715 0.675781C157.714 0.67636 133.547 25.1078 102.992 42.7509Z" fill="#9EBB31"/>
<path d="M110.237 55.2639C42.1845 100.837 19.4596 103.285 15.1361 114.896C15.1361 114.896 12.6186 121.285 24.5337 116.339C34.0837 112.382 55.5501 101.117 91.3859 75.8896C91.3859 75.8896 139.493 43.4024 162.208 9.54688C162.208 9.54688 139.569 35.6205 110.237 55.2639Z" fill="#9EBB31"/>
</g>
</svg>
