<svg width="56" height="56" viewBox="0 0 56 56" fill="none" xmlns="http://www.w3.org/2000/svg">
<circle cx="28" cy="28" r="28" fill="#43B5B5"/>
<path fill-rule="evenodd" clip-rule="evenodd" d="M17.3096 40L17.7143 37.5191L16 35.762L18.3691 35.4L19.4286 33.1428L20.488 35.4L22.8571 35.762L21.1428 37.519L21.5475 39.9999L19.4286 38.8286L17.3096 39.9999V40ZM17.3096 31.4286L17.7143 28.9476L16 27.1906L18.3691 26.8286L19.4286 24.5714L20.488 26.8286L22.8571 27.1906L21.1428 28.9476L21.5475 31.4285L19.4286 30.2572L17.3096 31.4285V31.4286ZM17.3096 22.8572L17.7143 20.3762L16 18.6192L18.3691 18.2572L19.4286 16L20.488 18.2572L22.8571 18.6192L21.1428 20.3762L21.5475 22.8571L19.4286 21.6858L17.3096 22.8571V22.8572ZM22.8571 20.2858C22.8571 20.7592 23.2412 21.1429 23.7146 21.1429H39.1425C39.6161 21.1429 39.9999 20.7592 39.9999 20.2858C39.9999 19.8123 39.6158 19.4286 39.1425 19.4286H23.7146C23.241 19.4286 22.8571 19.8123 22.8571 20.2858ZM22.8571 28.8572C22.8571 29.3306 23.2412 29.7143 23.7146 29.7143H39.1425C39.6161 29.7143 39.9999 29.3306 39.9999 28.8572C39.9999 28.3838 39.6158 28 39.1425 28H23.7146C23.241 28 22.8571 28.3837 22.8571 28.8572ZM22.8571 37.4286C22.8571 37.902 23.2412 38.2857 23.7146 38.2857H39.1425C39.6161 38.2857 39.9999 37.902 39.9999 37.4286C39.9999 36.9552 39.6158 36.5714 39.1425 36.5714H23.7146C23.241 36.5714 22.8571 36.9551 22.8571 37.4286Z" fill="white"/>
</svg>
