<svg width="56" height="56" viewBox="0 0 56 56" fill="none" xmlns="http://www.w3.org/2000/svg">
<circle cx="28" cy="28" r="28" fill="#9EBB31"/>
<path d="M33.9962 29.2266C31.3513 29.2266 29.2207 31.3572 29.2207 34.0021C29.2207 36.647 31.3758 38.7776 33.9962 38.7776C36.6166 38.7776 38.7717 36.647 38.7717 34.0021C38.7717 31.3572 36.6411 29.2266 33.9962 29.2266ZM36.6166 33.5123L33.7513 36.3776C33.4085 36.7204 32.8697 36.7204 32.5268 36.3776L31.4003 35.2511C31.0574 34.9082 31.0574 34.3694 31.4003 34.0266C31.7432 33.6837 32.2819 33.6837 32.6248 34.0266L33.1391 34.5408L35.3921 32.2878C35.735 31.9449 36.2738 31.9449 36.6166 32.2878C36.9595 32.6306 36.9595 33.1694 36.6166 33.5123Z" fill="white"/>
<path d="M27.9959 34C27.9959 30.6939 30.6898 28 33.9959 28H35V17.0041C35 16.4408 34.5592 16 33.9959 16H18.0041C17.4653 16 17 16.4408 17 17.0041V38.9959C17 39.5592 17.4408 40 18.0041 40H33.9959C30.6898 40 27.9959 37.3061 27.9959 34ZM23.6367 32.849H21.4816C20.9184 32.849 20.4776 32.4082 20.4776 31.8449C20.4776 31.2816 20.9184 30.8408 21.4816 30.8408H23.6367C24.2 30.8408 24.6408 31.2816 24.6408 31.8449C24.6408 32.4082 24.2 32.849 23.6367 32.849ZM25.7673 27.5592H21.4816C20.9184 27.5592 20.4776 27.1184 20.4776 26.5551C20.4776 25.9918 20.9184 25.551 21.4816 25.551H25.7429C26.3061 25.551 26.7469 25.9918 26.7469 26.5551C26.7469 27.1184 26.3061 27.5592 25.7673 27.5592ZM21.4816 22.2694C20.9184 22.2694 20.4776 21.8286 20.4776 21.2653C20.4776 20.702 20.9184 20.2612 21.4816 20.2612H27.751C28.3143 20.2612 28.7551 20.702 28.7551 21.2653C28.7551 21.8286 28.3143 22.2694 27.751 22.2694H21.4816Z" fill="white"/>
</svg>
