<svg width="23" height="23" viewBox="0 0 23 23" fill="none" xmlns="http://www.w3.org/2000/svg">
<path d="M22 7V1H16" stroke="white" stroke-width="2" stroke-linecap="round" stroke-linejoin="round"/>
<path d="M15 8L22 1" stroke="white" stroke-width="2" stroke-linecap="round" stroke-linejoin="round"/>
<path d="M20.9999 16.9201V19.9201C21.0011 20.1986 20.944 20.4743 20.8324 20.7294C20.7209 20.9846 20.5572 21.2137 20.352 21.402C20.1468 21.5902 19.9045 21.7336 19.6407 21.8228C19.3769 21.912 19.0973 21.9452 18.8199 21.9201C15.7428 21.5857 12.7869 20.5342 10.1899 18.8501C7.77376 17.3148 5.72527 15.2663 4.18993 12.8501C2.49991 10.2413 1.44818 7.27109 1.11993 4.1801C1.09494 3.90356 1.12781 3.62486 1.21643 3.36172C1.30506 3.09859 1.4475 2.85679 1.6347 2.65172C1.82189 2.44665 2.04974 2.28281 2.30372 2.17062C2.55771 2.05843 2.83227 2.00036 3.10993 2.0001H6.10993C6.59524 1.99532 7.06572 2.16718 7.43369 2.48363C7.80166 2.80008 8.04201 3.23954 8.10993 3.7201C8.23656 4.68016 8.47138 5.62282 8.80993 6.5301C8.94448 6.88802 8.9736 7.27701 8.89384 7.65098C8.81408 8.02494 8.6288 8.36821 8.35993 8.6401L7.08993 9.9101C8.51349 12.4136 10.5864 14.4865 13.0899 15.9101L14.3599 14.6401C14.6318 14.3712 14.9751 14.1859 15.3491 14.1062C15.723 14.0264 16.112 14.0556 16.4699 14.1901C17.3772 14.5286 18.3199 14.7635 19.2799 14.8901C19.7657 14.9586 20.2093 15.2033 20.5265 15.5776C20.8436 15.9519 21.0121 16.4297 20.9999 16.9201Z" stroke="white" stroke-width="2" stroke-linecap="round" stroke-linejoin="round"/>
</svg>
