<svg width="104" height="104" viewBox="0 0 104 104" fill="none" xmlns="http://www.w3.org/2000/svg">
<circle opacity="0.2" cx="52" cy="52" r="52" fill="white"/>
<circle cx="52" cy="52" r="40" fill="white"/>
<path fill-rule="evenodd" clip-rule="evenodd" d="M51.842 51.181C51.3042 51.181 50.8667 50.7577 50.8667 50.2377C50.8667 49.7173 51.3042 49.2943 51.842 49.2943C52.3798 49.2943 52.8169 49.7173 52.8169 50.2377C52.8169 50.7577 52.3798 51.181 51.842 51.181ZM51.842 48.6277C50.9243 48.6277 50.1777 49.35 50.1777 50.2377C50.1777 51.1253 50.9243 51.8477 51.842 51.8477C52.7594 51.8477 53.5059 51.1253 53.5059 50.2377C53.5059 49.35 52.7594 48.6277 51.842 48.6277ZM54.8295 43.952C54.8295 45.521 53.5228 46.8047 51.9013 46.8047C50.28 46.8047 48.973 45.521 48.973 43.952V41.0153C48.973 39.4463 50.28 38.1627 51.9013 38.1627C53.5228 38.1627 54.8295 39.4463 54.8295 41.0153V43.952ZM51.9013 37.496C49.8959 37.496 48.284 39.075 48.284 41.0153V43.952C48.284 45.8927 49.8959 47.4713 51.9013 47.4713C53.9069 47.4713 55.5185 45.8927 55.5185 43.952V41.0153C55.5185 39.075 53.9069 37.496 51.9013 37.496ZM53.4515 43.9813C53.4515 44.8383 52.787 45.5357 51.9013 45.5357C51.0155 45.5357 50.351 44.8383 50.351 43.9813V40.9863C50.351 40.1293 51.0155 39.432 51.9013 39.432C52.787 39.432 53.4515 40.1293 53.4515 40.9863V43.9813ZM51.9013 38.7653C50.639 38.7653 49.662 39.7647 49.662 40.9863V43.9813C49.662 45.2027 50.639 46.2023 51.9013 46.2023C53.1638 46.2023 54.1405 45.2027 54.1405 43.9813V40.9863C54.1405 39.7647 53.1638 38.7653 51.9013 38.7653ZM59.9546 40.5303C59.7227 43.1317 59.2267 45.5153 58.9021 47.175C58.6644 48.3903 58.1852 50.584 57.8363 53.6243L58.4732 42.4103C58.6104 40.0787 57.9234 38.003 56.5385 36.5843C55.3376 35.354 53.6696 34.6667 51.8423 34.6667H51.8413C50.0141 34.6667 48.3464 35.354 47.1455 36.5843C45.7606 38.003 45.0733 40.0737 45.2108 42.4067L45.8467 53.6087C45.4977 50.573 45.0192 48.3847 44.7819 47.1707C44.4573 45.511 43.9609 43.1307 43.7294 40.529C43.6102 39.1927 43.7583 37.301 44.0632 35.4647C44.5187 34.993 46.6497 33.1413 51.9836 33.1413C57.2927 33.1413 59.2136 34.975 59.6173 35.4433C59.9243 37.287 60.0741 39.1887 59.9546 40.5303ZM57.7853 42.364L56.1324 71.39C56.0101 73.4653 54.0823 75 51.8423 75H51.8417C49.6014 75 47.6739 73.47 47.5516 71.3947L45.8987 42.3227C45.6472 38.05 48.3123 35.3333 51.8413 35.3333H51.8423C55.3717 35.3333 58.0368 38.091 57.7853 42.364ZM45.2576 30.919C45.29 30.8433 45.3206 30.77 45.3506 30.698C45.6562 30.573 47.4059 29.9513 51.9584 29.9513C56.5744 29.9513 58.1143 30.5903 58.332 30.693C58.3623 30.766 58.3933 30.8403 58.4261 30.917C58.8005 31.7937 59.1447 33.0197 59.4148 34.345C58.3427 33.5447 56.1348 32.4747 51.9836 32.4747C47.7008 32.4747 45.3685 33.611 44.2561 34.4117C44.5286 33.062 44.8773 31.81 45.2576 30.919ZM46.9212 28.9063C48.1211 28.724 50.7496 28.6667 51.7693 28.6667H51.9143C52.9344 28.6667 55.5629 28.7247 56.7625 28.9067C57.3988 29.0033 57.7085 29.348 57.9606 29.8193C57.0674 29.57 55.2708 29.2653 51.9584 29.2653C48.529 29.2653 46.6349 29.5807 45.713 29.83C45.9666 29.3467 46.2766 29.004 46.9212 28.9063ZM60.3242 35.4677C60.3501 35.3803 60.3422 35.284 60.2888 35.2003C60.2863 35.1967 60.2815 35.1893 60.2753 35.18C59.9818 33.4533 59.5543 31.7797 59.063 30.6297C59.0103 30.5067 58.9617 30.3877 58.9149 30.2737C58.5473 29.3797 58.167 28.4453 56.8693 28.2483C55.5826 28.053 52.8562 28 51.9143 28H51.7693C50.823 28 48.0873 28.0523 46.8144 28.2453C45.5253 28.4413 45.1463 29.3747 44.7798 30.2727C44.7298 30.395 44.6775 30.5253 44.621 30.6577C44.1345 31.7967 43.7101 33.4557 43.4169 35.1603C43.4142 35.164 43.4107 35.1733 43.409 35.1753C43.3425 35.264 43.3339 35.374 43.3653 35.471C43.0625 37.3387 42.9229 39.2417 43.0428 40.586C43.2564 42.9837 43.6932 45.1943 44.0119 46.8113L44.1046 47.2807C44.1376 47.4493 44.1752 47.6357 44.2165 47.841C44.569 49.5943 45.2252 52.857 45.4726 57.2863C45.732 61.933 46.2563 69.7067 46.4544 70.85C47.0232 74.1293 48.9606 76 51.7693 76H51.9143C54.723 76 56.6605 74.1283 57.2296 70.8477C57.4298 69.693 57.9531 61.9417 58.2114 57.318C58.4598 52.8703 59.1181 49.5907 59.4719 47.8277C59.5112 47.6307 59.5474 47.452 59.5791 47.2893L59.6625 46.8653C59.9846 45.23 60.4255 42.991 60.6412 40.5703C60.7607 39.228 60.6236 37.333 60.3242 35.4677Z" fill="#9EBB31" stroke="#9EBB31" stroke-width="0.5"/>
</svg>
