<svg width="104" height="104" viewBox="0 0 104 104" fill="none" xmlns="http://www.w3.org/2000/svg">
<circle opacity="0.2" cx="52" cy="52" r="52" fill="white"/>
<circle cx="52" cy="52" r="40" fill="white"/>
<path fill-rule="evenodd" clip-rule="evenodd" d="M29 54.04C29 41.3153 39.3153 31 52.04 31C64.7652 31 75.08 41.3153 75.08 54.0405C75.08 60.1994 72.6582 65.7899 68.723 69.9279C68.7722 63.9636 63.6972 61.5695 61.4746 60.6596C60.98 60.4584 60.1096 60.1195 59.8582 60.0217C60.938 61.5833 61.5412 63.4526 61.5412 65.4197C61.5412 65.7064 61.5284 66.1662 61.5023 66.5855C62.6015 66.9496 63.3992 67.9848 63.3992 69.2044C63.3992 70.7286 62.1612 71.9667 60.638 71.9667C59.1148 71.9667 57.8768 70.7286 57.8768 69.2044C57.8768 67.8394 58.8747 66.7059 60.1788 66.4862C60.2018 66.114 60.2141 65.69 60.2141 65.4187C60.2141 62.6288 58.8138 60.0621 56.4657 58.5471L54.2211 65.8442C53.9651 64.3445 53.6088 63.0497 53.3845 62.3134C53.4505 62.1532 53.5393 61.9841 53.6316 61.8082C53.6381 61.7957 53.6447 61.7832 53.6513 61.7707L53.6553 61.7631C53.8496 61.3922 54.05 61.0097 54.1136 60.6141C54.2426 59.8128 53.917 59.2875 53.6175 58.9168C53.3446 58.5835 52.83 58.5169 52.5561 58.7284L52.0344 59.0827L51.5408 58.7402C51.2269 58.5005 50.7359 58.5809 50.463 58.9178C50.164 59.286 49.8379 59.8113 49.9669 60.6151C50.0303 61.0119 50.2327 61.396 50.4285 61.7678L50.4292 61.7692C50.4373 61.7845 50.4453 61.7998 50.4533 61.8151C50.5444 61.9892 50.6311 62.1548 50.697 62.3134C50.4702 63.0568 50.1087 64.3717 49.8522 65.8928L47.5769 58.5712C45.3963 59.9981 44.041 61.8941 43.8838 64.4689C45.5243 64.9809 46.9794 67.1283 47.1238 69.4348C47.1366 69.4865 47.1463 69.5423 47.1463 69.5987V70.2673C47.1463 71.5827 46.2083 72.7208 44.9155 72.9727C44.873 72.9799 44.8305 72.9835 44.788 72.9835C44.4767 72.9835 44.1997 72.7638 44.1373 72.4485C44.0676 72.088 44.3027 71.7409 44.6611 71.6702C45.3343 71.5391 45.8212 70.9488 45.8212 70.2663V69.7267C45.8203 69.7199 45.8192 69.7133 45.8181 69.7068C45.8156 69.6924 45.8132 69.6783 45.8125 69.6632C45.7485 67.6131 44.274 65.6839 43.1706 65.667C42.0662 65.6844 40.5922 67.6131 40.5282 69.6632C40.5275 69.677 40.5255 69.6901 40.5234 69.7033C40.5222 69.711 40.5209 69.7187 40.52 69.7267V70.2663C40.52 70.9949 41.0673 71.6072 41.7928 71.6881C42.1569 71.7291 42.419 72.0568 42.3786 72.4198C42.3412 72.7597 42.054 73.0091 41.7212 73.0091C41.6961 73.0091 41.672 73.0081 41.6469 73.005C40.2486 72.8483 39.1949 71.6712 39.1949 70.2653V69.5966C39.1949 69.5403 39.2042 69.486 39.218 69.4328C39.3654 67.0796 40.8769 64.8903 42.5588 64.4372C42.6576 62.6667 43.2438 61.4358 44.2259 60.0166C44.2252 60.0166 44.2244 60.0171 44.2237 60.0174C44.2234 60.0175 44.2231 60.0176 44.2228 60.0176C44.2228 60.0176 43.185 60.4195 42.6074 60.6556C40.3853 61.5654 35.3109 63.96 35.3596 69.9228C31.4218 65.7894 29 60.1988 29 54.04ZM60.6355 70.8592C61.5478 70.8592 62.2908 70.1153 62.2908 69.2013C62.2908 68.2884 61.5478 67.5461 60.6355 67.5466C59.7226 67.5466 58.9786 68.2884 58.9786 69.2013C58.9786 70.1153 59.7226 70.8592 60.6355 70.8592ZM60.0907 49.946C60.4255 49.1069 60.5715 47.4818 60.5709 47.4818C60.6682 46.4972 60.4522 45.7318 60.2392 45.2996C60.1905 40.344 58.4026 39.1971 56.842 38.7548C56.8292 38.7511 56.8168 38.7476 56.8047 38.7443C56.7724 38.7353 56.7426 38.727 56.7151 38.7184C55.6373 37.6447 53.2852 37.1435 51.9908 37.1435C46.878 37.1435 43.9176 40.1121 43.8413 45.2991C43.6243 45.7297 43.4108 46.4849 43.506 47.4582C43.507 47.4731 43.6545 49.1094 43.9914 49.9532C44.2054 50.4765 44.5658 50.9209 45.0256 51.2327C45.1075 51.695 45.2007 52.1149 45.3021 52.484C45.7813 54.2351 48.1329 58.0751 52.0001 58.0751C55.7141 58.0751 58.247 54.4332 58.7769 52.4851C58.8967 52.0504 58.9894 51.6013 59.0544 51.2322C59.5137 50.9204 59.8741 50.4755 60.0907 49.946ZM56.4263 40.2225C57.1698 40.4341 58.7134 40.8734 58.7134 45.5023C58.7134 45.663 58.7641 45.8192 58.8562 45.9477C58.8962 46.0214 59.1342 46.4996 59.0513 47.3475C59.0226 47.7013 58.8706 48.8897 58.677 49.3766C58.5506 49.6858 58.3278 49.9244 58.0324 50.0642C57.8056 50.1727 57.6464 50.3862 57.6064 50.6346C57.5506 51.0058 57.4503 51.5582 57.3054 52.0825C56.9946 53.2283 55.0823 56.5497 51.9995 56.5497C48.9444 56.5497 47.0987 53.2749 46.7725 52.0804C46.6594 51.6714 46.558 51.1839 46.4709 50.6335C46.4315 50.3847 46.2723 50.1727 46.046 50.0642C45.7506 49.9244 45.5289 49.6868 45.4044 49.3817C45.2043 48.8779 45.0517 47.6522 45.0256 47.3327C44.9457 46.5181 45.1787 46.0317 45.2191 45.9533C45.3128 45.8243 45.3645 45.6676 45.3645 45.5048C45.3645 41.0325 47.6562 38.6691 51.9903 38.6691C53.2048 38.6691 55.0787 39.1791 55.6726 39.836C55.882 40.0679 56.158 40.1467 56.4247 40.222L56.4263 40.2225Z" fill="#9EBB31"/>
</svg>
