<svg width="171" height="79" viewBox="0 0 171 79" fill="none" xmlns="http://www.w3.org/2000/svg">
<path d="M87.5613 37.7208C-3.40666 72.5826 -29.8899 71.3621 -38.3269 82.3553C-38.3269 82.3553 -43.1263 88.3819 -28.1239 85.3335C-16.1015 82.8967 11.6449 75.0331 59.9229 55.4369C59.9229 55.4369 124.312 30.5196 160.361 0.105469C160.36 0.105962 126.772 22.6942 87.5613 37.7208Z" fill="white"/>
<path d="M92.7539 51.2154C3.88111 91.0963 -22.6576 91.3675 -30.4461 102.805C-30.4461 102.805 -34.8899 109.086 -20.075 105.202C-8.20245 102.096 19.067 92.6942 66.169 70.4373C66.169 70.4373 129.061 41.9679 163.308 9.60938C163.308 9.60938 131.061 34.0253 92.7539 51.2154Z" fill="white"/>
</svg>
