<svg width="157" height="81" viewBox="0 0 157 81" fill="none" xmlns="http://www.w3.org/2000/svg">
<path d="M83.3488 43.0995C174.317 8.23769 200.8 9.45826 209.237 -1.53496C209.237 -1.53496 214.036 -7.56163 199.034 -4.51316C187.012 -2.07635 159.265 5.78724 110.987 25.3834C110.987 25.3834 46.5981 50.3007 10.5491 80.7148C10.5504 80.7144 44.1386 58.1261 83.3488 43.0995Z" fill="white"/>
<path d="M78.1563 29.6049C167.029 -10.276 193.568 -10.5472 201.356 -21.9851C201.356 -21.9851 205.8 -28.2653 190.985 -24.3818C179.113 -21.2758 151.843 -11.8739 104.741 10.3831C104.741 10.3831 41.8492 38.8524 7.60181 71.2109C7.60181 71.2109 39.8491 46.795 78.1563 29.6049Z" fill="white"/>
</svg>
