<svg width="90" height="15" viewBox="0 0 90 15" fill="none" xmlns="http://www.w3.org/2000/svg">
<path d="M55.5066 3.72455C15.5311 3.72644 5.56251 -0.62966 0.715569 2.34394C0.715569 2.34394 -2.00832 3.94856 4.18784 4.98318C9.15236 5.81464 20.9388 6.87535 42.315 6.45496C42.315 6.45496 70.646 6.36112 88.9248 0C88.9242 2.67101e-08 72.7374 3.72374 55.5066 3.72455Z" fill="#9EBB31"/>
<path d="M55.5154 9.65756C15.6058 11.8903 5.39692 8.09767 0.733165 11.3369C0.733165 11.3369 -1.89169 13.0909 4.35524 13.778C9.36058 14.331 21.1901 14.7323 42.5064 13.1196C42.5064 13.1196 70.7853 11.4449 88.6592 4.07422C88.6592 4.07422 72.7178 8.69517 55.5154 9.65756Z" fill="#9EBB31"/>
</svg>
