<svg width="48" height="48" viewBox="0 0 48 48" fill="none" xmlns="http://www.w3.org/2000/svg">
<path d="M40 21C36.1 21 33 24.1 33 28C33 31.9 36.1 35 40 35C43.9 35 47 31.9 47 28C47 24.1 43.9 21 40 21Z" fill="#9EBB31"/>
<path d="M21.9999 33H22.4999C24.9999 33 27.0999 31.2 27.3999 28.7L30.5999 6.4C30.7999 5.6 30.4999 4.7 29.9999 4C29.3999 3.3 28.5999 3 27.6999 3H22.9999V2C22.9999 1.4 22.5999 1 21.9999 1C21.3999 1 20.9999 1.4 20.9999 2V6C20.9999 6.6 21.3999 7 21.9999 7C22.5999 7 22.9999 6.6 22.9999 6V5H27.6999C27.9999 5 28.2999 5.1 28.4999 5.3C28.6999 5.5 28.7999 5.8 28.6999 6.1L25.4999 28.4C25.2999 29.9 23.9999 31 22.4999 31H9.49992C7.99992 31 6.69992 29.9 6.49992 28.4L3.29992 6.1C3.29992 5.8 3.29992 5.5 3.49992 5.3C3.69992 5.1 3.99992 5 4.29992 5H8.99992V6C8.99992 6.6 9.39992 7 9.99992 7C10.5999 7 10.9999 6.6 10.9999 6V2C10.9999 1.4 10.5999 1 9.99992 1C9.39992 1 8.99992 1.4 8.99992 2V3H4.29992C3.39992 3 2.59992 3.4 1.99992 4C1.49992 4.7 1.19992 5.6 1.29992 6.4L4.49992 28.7C4.89992 31.2 6.99992 33 9.49992 33H9.99992H21.9999Z" fill="#9EBB31"/>
<path d="M40.0001 37C39.5001 37 39.1001 37 38.6001 36.9C37.3001 41.6 33.1001 45 28.0001 45C22.3001 45 17.6001 40.6 17.1001 35H15.1001C15.6001 41.7 21.2001 47 28.0001 47C34.1001 47 39.3001 42.7 40.6001 37C40.4001 37 40.2001 37 40.0001 37Z" fill="#9EBB31"/>
</svg>
