<svg width="96" height="96" viewBox="0 0 96 96" fill="none" xmlns="http://www.w3.org/2000/svg">
<circle cx="48" cy="48" r="48" fill="#9EBB31"/>
<path d="M43.5188 69.102L25.7212 37.8755L47.294 56.6439L43.5188 69.102ZM60.2383 60.3111L61.425 55.8884L73.6672 48.8238L65.0922 60.0413L60.2383 60.3111ZM53.6043 68.9401L61.4244 67.3763L72.0489 60.3651L58.674 62.5764L53.6043 68.9401ZM52.1484 69.102L70 37.8749L48.3727 56.6439L52.1484 69.102ZM49.6672 72.5L50.9618 69.9654L47.8876 61.6057L44.8134 69.9649L46.1079 72.4994H49.6672V72.5ZM35.4289 60.3111L34.2423 55.8884L22 48.8238L30.629 60.0419L35.4289 60.3111ZM42.1169 68.9401L34.2428 67.3763L23.6178 60.3651L37.0466 62.5764L42.1169 68.9401ZM41.955 39.0621L39.4205 36.9047L38.5037 26.8193L43.2496 35.826L41.955 39.0621ZM53.8201 39.0621L56.3547 36.9047L57.2715 26.8193L52.5795 35.826L53.8201 39.0621ZM54.8449 46.4505L59.1057 44.7788L64.8224 31.835L54.575 41.5967L54.8449 46.4505ZM40.9843 46.4505L36.6695 44.7788L31.0067 31.835L41.2001 41.5967L40.9843 46.4505ZM47.8876 54.8643L42.1169 48.2841L47.8876 24.5L53.7122 48.2841L47.8876 54.8643Z" fill="white"/>
</svg>
