<svg width="96" height="96" viewBox="0 0 96 96" fill="none" xmlns="http://www.w3.org/2000/svg">
<circle cx="48" cy="48" r="48" fill="#9EBB31"/>
<path d="M48.6366 55.9679L39.3578 48.5139C39.1672 48.3511 38.9319 48.2493 38.6827 48.2219L26.0008 46.607C25.8263 46.5706 25.6461 46.5706 25.4716 46.607C25.2645 46.663 25.0737 46.7675 24.9151 46.9119C24.7564 47.0563 24.6344 47.2364 24.5593 47.4373L19.0851 61.5607C18.9845 61.8323 18.9728 62.1288 19.0515 62.4075C19.1302 62.6863 19.2953 62.9328 19.523 63.1118L28.3547 70.4107C28.4646 70.497 28.5879 70.5648 28.7196 70.6114H28.7653C28.8414 70.6422 28.9211 70.6637 29.0025 70.6753L42.1223 72.5H42.3048C42.5856 72.4973 42.8587 72.4084 43.0872 72.2451C43.3157 72.0819 43.4885 71.8524 43.5821 71.5876L49.0563 57.4551C49.1287 57.2623 49.1572 57.0559 49.1398 56.8507C49.1225 56.6456 49.0597 56.4469 48.9559 56.269C48.8679 56.1507 48.7598 56.0488 48.6366 55.9679ZM43.062 55.0008L35.2339 53.9333L30.3801 49.9372L37.9528 50.9134L43.062 55.0008ZM26.4296 50.2291L33.0351 55.7033L28.9842 66.1773L28.6284 67.0897L22.0229 61.6155L26.4296 50.2291ZM41.4563 69.6534L31.1192 68.2393L32.1319 65.6299L35.5533 56.7252L45.8904 58.1485L41.4563 69.6534ZM75.7156 48.8697C75.699 48.6604 75.6343 48.4577 75.5267 48.2773C75.4192 48.0969 75.2715 47.9438 75.0952 47.8296C74.9571 47.723 74.7988 47.6454 74.6299 47.6015L64.0556 45.3845C63.8062 45.3296 63.5462 45.3487 63.3074 45.4392L52.1948 49.4719C52.0396 49.5304 51.8948 49.6136 51.766 49.7182C51.6025 49.8573 51.4743 50.0332 51.3918 50.2314C51.3093 50.4297 51.275 50.6446 51.2916 50.8587L52.3499 64.9912C52.3703 65.2831 52.4843 65.5606 52.675 65.7825C52.8657 66.0044 53.1228 66.1588 53.4083 66.2229L63.5629 68.5859C63.6631 68.5949 63.7638 68.5949 63.864 68.5859C64.0201 68.5814 64.1743 68.5506 64.3202 68.4947L75.8525 64.3982C76.1362 64.2972 76.3791 64.1061 76.5439 63.854C76.7086 63.6018 76.7863 63.3027 76.7649 63.0023L75.7156 48.8697ZM63.8549 48.1398L69.3291 49.3076L62.7235 51.6433L57.5048 50.4572L63.8549 48.1398ZM55.014 63.7778L54.1655 52.5009L61.5192 54.1797L62.3677 65.4565L55.014 63.7778ZM65.0501 65.3197L64.2563 53.9881L73.1154 50.8404L73.9639 62.1994L65.0501 65.3197ZM35.5441 41.808L44.0565 45.5761H44.1021C44.2526 45.6377 44.4139 45.6688 44.5766 45.6673C44.6493 45.6761 44.7228 45.6761 44.7955 45.6673L55.7166 43.9521C56.0088 43.9066 56.2783 43.7672 56.4841 43.5548C56.6899 43.3424 56.8208 43.0686 56.857 42.7751L58.4537 29.8651C58.4796 29.6548 58.456 29.4413 58.3847 29.2417C58.3134 29.0421 58.1964 28.8619 58.0431 28.7155C57.9221 28.6004 57.7795 28.5104 57.6234 28.451L48.7187 24.6099C48.4803 24.5073 48.2174 24.4757 47.9614 24.5187L37.4601 26.3434C37.3034 26.3642 37.1518 26.4137 37.0131 26.4894C36.8246 26.595 36.6647 26.7449 36.5471 26.9261C36.4294 27.1073 36.3577 27.3143 36.3379 27.5295L34.7413 40.3938C34.7033 40.6848 34.7611 40.9802 34.9059 41.2353C35.0508 41.4905 35.2748 41.6915 35.5441 41.808ZM43.4817 42.328L37.5787 39.7187L38.8287 29.6827L44.7225 32.292L43.4817 42.328ZM54.2659 41.4157L46.1915 42.7295L47.4414 32.6935L55.5158 31.3797L54.2659 41.4157ZM48.0253 27.2831L52.204 29.0622L46.3922 29.9746L42.4234 28.2411L48.0253 27.2831Z" fill="white"/>
</svg>
