<svg width="96" height="96" viewBox="0 0 96 96" fill="none" xmlns="http://www.w3.org/2000/svg">
<circle cx="48" cy="48" r="48" fill="#9EBB31"/>
<path d="M48.2125 24.25H48.2117L47.6571 24.4961C47.2899 24.9045 42.8223 29.9015 38.4449 36.0245C36.2563 39.0859 34.0863 42.4341 32.4626 45.6345C30.8425 48.8276 29.75 51.9042 29.75 54.4136C29.75 64.5242 37.9759 72.75 48.0869 72.75C58.1979 72.75 66.4238 64.5242 66.4238 54.4136C66.4238 51.9055 65.3467 48.8298 63.7492 45.637C62.148 42.437 60.0083 39.0891 57.85 36.028C53.5351 29.9078 49.1312 24.9123 48.7659 24.5007C48.6253 24.3407 48.4231 24.2507 48.2125 24.25ZM48.0869 71.2636C38.7958 71.2636 31.2369 63.7046 31.2369 54.4141C31.2369 52.3118 32.133 49.6625 33.5451 46.8036C34.9537 43.9518 36.8608 40.9206 38.8511 38.0631C42.6521 32.6064 46.7428 27.8026 48.206 26.1232C49.6519 27.8063 53.6847 32.6094 57.4312 38.0645C59.3934 40.9215 61.2734 43.9521 62.662 46.8035C64.0539 49.6618 64.9374 52.3111 64.9374 54.4141C64.9369 63.7046 57.3784 71.2636 48.0869 71.2636Z" fill="white" stroke="white" stroke-width="0.5"/>
<path d="M51.0959 43.6H51.0961C51.5735 43.5996 51.9624 43.9884 51.9624 44.4669C51.9624 44.9452 51.5732 45.3339 51.0959 45.3339C50.6183 45.3339 50.2295 44.9448 50.2295 44.4669C50.2295 43.9887 50.6187 43.6 51.0959 43.6ZM40.3695 55.1589V55.1591C40.3698 55.6361 39.9809 56.0254 39.5025 56.0254C39.0243 56.0254 38.6355 55.6362 38.6355 55.1589C38.6355 54.6802 39.0247 54.2915 39.5025 54.2915C39.9806 54.2915 40.3695 54.6806 40.3695 55.1589ZM53.8949 60.1821V60.1823C53.8953 60.6605 53.5062 61.0496 53.0284 61.0496C52.5498 61.0496 52.161 60.6605 52.161 60.1821C52.161 59.7046 52.55 59.3157 53.0284 59.3157C53.5061 59.3157 53.8949 59.7048 53.8949 60.1821ZM55.0895 47.588C53.5064 47.588 52.1653 48.5732 51.6077 49.9542L47.0572 48.9843C47.1058 48.7561 47.1378 48.5172 47.1378 48.2671C47.1378 48.0249 47.109 47.7925 47.0644 47.5698L49.4863 46.172C49.9054 46.5702 50.4691 46.8208 51.0959 46.8208C52.3943 46.8208 53.4493 45.7651 53.4493 44.4669C53.4493 43.1688 52.3943 42.1131 51.0959 42.1131C50.8968 42.1131 50.7082 42.1429 50.5306 42.1899L49.1617 40.1822C49.5781 39.7604 49.8426 39.1849 49.8426 38.5413C49.8426 37.2431 48.7865 36.1875 47.4887 36.1875C46.1905 36.1875 45.1349 37.2431 45.1349 38.5413C45.1349 39.8396 46.1905 40.8952 47.4887 40.8952C47.6062 40.8952 47.7198 40.8852 47.8298 40.8683L49.2724 42.9842C48.9427 43.3884 48.7421 43.9036 48.7421 44.4669C48.7421 44.6049 48.7572 44.7365 48.7809 44.8621L46.49 46.1839C45.8161 45.1733 44.6753 44.4963 43.366 44.4963C41.2868 44.4963 39.5957 46.1874 39.5957 48.2666C39.5957 49.2699 39.9932 50.1773 40.6318 50.8516L39.6501 52.813C39.6026 52.8081 39.5524 52.8046 39.5015 52.8046C38.2032 52.8046 37.1477 53.8608 37.1477 55.1589C37.1477 56.4572 38.2034 57.5123 39.5015 57.5123C40.7997 57.5123 41.8554 56.4572 41.8554 55.1589C41.8554 54.444 41.5329 53.8065 41.0309 53.376L41.865 51.7089C42.3225 51.9131 42.8267 52.0369 43.366 52.0369C43.3905 52.0369 43.4144 52.036 43.4372 52.0344L44.1901 57.8611C42.7215 58.3742 41.6568 59.7598 41.6568 61.4057C41.6568 63.4848 43.3479 65.1769 45.4271 65.1769C47.5064 65.1769 49.1975 63.4848 49.1975 61.4057C49.1975 59.4048 47.6317 57.7651 45.6613 57.6439L44.8946 51.7031C45.538 51.4161 46.0822 50.9558 46.4745 50.3801L51.3196 51.4132C51.342 52.9666 52.313 54.2792 53.6699 54.8341L52.9742 57.8294C51.7013 57.8586 50.6746 58.9021 50.6746 60.1821C50.6746 61.4804 51.7307 62.5365 53.0289 62.5365C54.3273 62.5365 55.3823 61.4802 55.3823 60.1821C55.3823 59.3936 54.9899 58.7023 54.397 58.2768L55.1285 55.1279C57.19 55.1072 58.8603 53.4242 58.8603 51.3578C58.8603 49.2785 57.1686 47.588 55.0895 47.588ZM46.6223 38.5413C46.6223 38.0632 47.0114 37.6744 47.4892 37.6744C47.9674 37.6744 48.3562 38.0635 48.3562 38.5413C48.3562 39.0195 47.9671 39.4083 47.4892 39.4083C47.0115 39.4083 46.6223 39.0191 46.6223 38.5413ZM47.712 61.4057C47.712 62.6654 46.6872 63.6905 45.4281 63.6905C44.169 63.6905 43.1442 62.6659 43.1442 61.4057C43.1442 60.1469 44.1689 59.1217 45.4281 59.1217C46.6873 59.1217 47.712 60.1469 47.712 61.4057ZM43.367 50.5505C42.1082 50.5505 41.0831 49.5258 41.0831 48.2666C41.0831 47.0074 42.1078 45.9827 43.367 45.9827C44.6263 45.9827 45.6514 47.0075 45.6514 48.2666C45.6514 49.5258 44.6263 50.5505 43.367 50.5505ZM55.0895 53.6417C53.8308 53.6417 52.8056 52.617 52.8056 51.3578C52.8056 50.0986 53.8303 49.0739 55.0895 49.0739C56.3488 49.0739 57.3735 50.0986 57.3735 51.3578C57.3735 52.617 56.3483 53.6417 55.0895 53.6417Z" fill="white" stroke="white" stroke-width="0.5"/>
</svg>
