<svg width="133" height="16" viewBox="0 0 133 16" fill="none" xmlns="http://www.w3.org/2000/svg">
<path d="M82.8274 5.68858C23.408 5.69146 8.59074 -0.961691 1.38626 3.57995C1.38626 3.57995 -2.66251 6.03071 6.54745 7.6109C13.9267 8.88081 31.4459 10.5009 63.2195 9.85878C63.2195 9.85878 105.331 9.71547 132.5 0C132.499 4.07948e-08 108.439 5.68734 82.8274 5.68858Z" fill="#9EBB31"/>
<path d="M82.8274 10.6886C23.408 10.6915 8.59074 4.03831 1.38626 8.57995C1.38626 8.57995 -2.66251 11.0307 6.54745 12.6109C13.9267 13.8808 31.4459 15.5009 63.2195 14.8588C63.2195 14.8588 105.331 14.7155 132.5 5C132.499 5 108.439 10.6873 82.8274 10.6886Z" fill="#9EBB31"/>
</svg>
